<svg xmlns="http://www.w3.org/2000/svg" viewBox="0 0 120 120"><path d="M47.7 102H19.3c-1.8 0-3.3-1.5-3.3-3.3V70.3c0-1.8 1.5-3.3 3.3-3.3h28.4c1.8 0 3.3 1.5 3.3 3.3v28.4c0 1.8-1.5 3.3-3.3 3.3z" fill="#87be19"/><path d="M85.7 102H57.3c-1.8 0-3.3-1.5-3.3-3.3V70.3c0-1.8 1.5-3.3 3.3-3.3h28.4c1.8 0 3.3 1.5 3.3 3.3v28.4c0 1.8-1.5 3.3-3.3 3.3z" fill="#afe34c"/><path d="M47.7 64H19.3c-1.8 0-3.3-1.5-3.3-3.3V32.3c0-1.8 1.5-3.3 3.3-3.3h28.4c1.8 0 3.3 1.5 3.3 3.3v28.4c0 1.8-1.5 3.3-3.3 3.3z" fill="#87be19"/><path d="M83.5 63.5L58.7 49.1c-1.6-.9-2.1-3-1.2-4.6l14.4-24.8c.9-1.6 3-2.1 4.6-1.2l24.8 14.4c1.6.9 2.1 3 1.2 4.6L88.1 62.3c-.9 1.6-3 2.2-4.6 1.2z" fill="#b928b4"/></svg>