<svg width="120" height="120" viewBox="0 0 120 120" xmlns="http://www.w3.org/2000/svg"><title>easy to use</title><g fill="none" fill-rule="evenodd"><path d="M25.465 46.008C28.126 57.523 37.659 66.406 49.509 68.1c.113.97.171 1.957.171 2.958 0 13.84-11.121 25.058-24.84 25.058S0 84.898 0 71.06C0 57.219 11.121 46 24.84 46c.209 0 .417.003.625.008z" fill="#87BF18"/><path d="M77.8 37.698c-6.348 5.196-10.4 13.095-10.4 21.941 0 .33.006.66.017.987a24.359 24.359 0 0 1-13.938 4.355C39.96 64.98 29 54.016 29 40.49 29 26.964 39.96 16 53.48 16c12.575 0 22.936 9.487 24.32 21.698z" fill="#87BF18"/><ellipse fill="#87BF18" cx="95.479" cy="59.49" rx="24.479" ry="24.49"/><path fill="#FFF" d="M22.902 65.928L18 68.702V63.23L23.624 60h5.434v25.346h-6.156zM61.746 47.216v5.624H44v-4.332c1.57-.912 3.224-2.122 4.959-3.629 1.735-1.507 3.192-3.09 4.37-4.75 1.178-1.66 1.767-3.148 1.767-4.465 0-1.292-.393-2.261-1.178-2.907-.785-.646-1.85-.969-3.192-.969-1.115 0-2.172.24-3.173.722-1 .481-2.109 1.178-3.325 2.09v-5.244c2.559-1.57 5.345-2.356 8.36-2.356 2.787 0 4.927.678 6.422 2.033s2.242 3.274 2.242 5.757c0 1.672-.469 3.255-1.406 4.75a17.841 17.841 0 0 1-3.382 3.971c-1.317 1.153-2.888 2.388-4.712 3.705h9.994zM87 72.016v-5.244c1.419.836 2.666 1.476 3.743 1.919a8.845 8.845 0 0 0 3.401.665c1.47 0 2.616-.272 3.439-.817.823-.545 1.235-1.311 1.235-2.299 0-2.23-1.596-3.344-4.788-3.344h-3.762V58.26h3.838c1.19 0 2.084-.247 2.679-.741.595-.494.893-1.134.893-1.919 0-.988-.386-1.71-1.159-2.166-.773-.456-1.78-.684-3.021-.684-.912 0-1.83.114-2.755.342-.925.228-2.008.633-3.249 1.216v-4.674a15.237 15.237 0 0 1 3.192-1.197c1.14-.291 2.28-.437 3.42-.437 2.533 0 4.668.583 6.403 1.748 1.735 1.165 2.603 2.888 2.603 5.168 0 .887-.209 1.697-.627 2.432-.418.735-.925 1.324-1.52 1.767-.595.443-1.134.716-1.615.817.76.228 1.514.633 2.261 1.216.747.583 1.368 1.336 1.862 2.261s.741 1.97.741 3.135c0 2.508-.931 4.376-2.793 5.605s-4.199 1.843-7.011 1.843c-2.407 0-4.877-.659-7.41-1.976z"/><path fill="#87BF18" d="M53.937 104.843l1.392-4.534 4.546-1.388-4.546-1.387L53.937 93l-1.391 4.534L48 98.92l4.546 1.388zM64.092 91.62l2.784 9.068 2.783-9.068 9.092-2.776-9.092-2.776L66.876 77l-2.784 9.068L55 88.844zM17.394 30.812L15.61 25l-1.783 5.812L8 32.59l5.827 1.779 1.783 5.81 1.784-5.81 5.828-1.78zM83.937 104.843l1.392-4.534 4.546-1.388-4.546-1.387L83.937 93l-1.391 4.534L78 98.92l4.546 1.388z"/></g></svg>