<svg width="120" height="120" viewBox="0 0 120 120" xmlns="http://www.w3.org/2000/svg"><title>green icons/faster recovery</title><g fill="none" fill-rule="evenodd"><path d="M84.4 18.494c20.164 3.088 35.6 20.34 35.6 41.159 0 21.992-17.223 40.003-39.05 41.544-.811.212-1.644.413-2.5.604-36.189 0-41.37-14.684-55.74-17.894 2.643-2.226 5.286-3.74 8.9-4.987-3.349-1.692-11.103-7.035-31.018-8.192 4.406-7.57 17.623-28.584 37.362-32.235-1.444-2.52-4.659-5.178-9.957-6.59 2.379-2.315 17.812-14.852 49.431-14.326 2.056 0 4.436.292 6.972.917zm17.024 64.676c13.29-13.29 13.402-34.724.25-47.875-13.15-13.151-34.585-13.039-47.874.25-13.29 13.29-13.402 34.724-.25 47.875 13.15 13.151 34.585 13.04 47.874-.25z" fill="#87BF18"/><path d="M82.07 54.141l7.5-7.499a2.462 2.462 0 0 1 3.489.005c.965.964.966 2.527.004 3.49L84.63 58.57a6.36 6.36 0 0 1-1.84 5.152c-2.479 2.478-6.477 2.5-8.93.046-1.591-1.591-2.142-3.833-1.655-5.888L58.785 44.46a2.677 2.677 0 0 1 .007-3.782 2.675 2.675 0 0 1 3.783-.007L75.55 53.648c2.08-1.05 4.606-.887 6.52.493z" fill="#BB26B8"/><path d="M78.959 32.318c-1.119.645-2.543.272-3.182-.835-.639-1.107-.25-2.527.868-3.173 1.118-.645 2.543-.272 3.181.835.64 1.107.25 2.527-.867 3.173zm13.574 4.216c-1.29 0-2.338-1.036-2.338-2.314s1.047-2.313 2.338-2.313c1.292 0 2.338 1.035 2.338 2.313 0 1.278-1.046 2.314-2.338 2.314zm9.628 10.362c-1.118-.646-1.507-2.066-.868-3.173.639-1.106 2.063-1.48 3.182-.834 1.118.645 1.506 2.066.867 3.172-.638 1.107-2.063 1.48-3.181.835zm3.1 13.731c-.645-1.118-.272-2.542.835-3.181 1.107-.64 2.527-.25 3.173.868.645 1.118.272 2.542-.835 3.181-1.107.64-2.527.25-3.173-.868zm-4.257 13.422c0-1.292 1.036-2.338 2.314-2.338s2.313 1.046 2.313 2.338c0 1.29-1.035 2.338-2.313 2.338-1.278 0-2.314-1.047-2.314-2.338zM90.53 83.564c.645-1.118 2.066-1.507 3.172-.868 1.107.639 1.48 2.063.835 3.181-.646 1.119-2.066 1.507-3.173.868-1.106-.638-1.48-2.063-.834-3.181zm-13.885 3.06c1.118-.646 2.543-.273 3.181.834.64 1.106.25 2.527-.867 3.173-1.119.645-2.543.271-3.182-.835-.639-1.107-.25-2.527.868-3.173zM63.07 82.406c1.291 0 2.338 1.036 2.338 2.314 0 1.277-1.047 2.313-2.338 2.313-1.291 0-2.338-1.036-2.338-2.313 0-1.278 1.047-2.314 2.338-2.314zm-9.627-10.362c1.118.646 1.506 2.066.867 3.173-.638 1.106-2.063 1.48-3.181.834-1.118-.645-1.507-2.066-.868-3.172.639-1.107 2.063-1.48 3.182-.835zm-3.101-13.731c.646 1.118.272 2.542-.835 3.181-1.106.64-2.527.25-3.172-.868-.646-1.118-.272-2.542.834-3.181 1.107-.64 2.527-.25 3.173.868zm4.257-13.422c0 1.291-1.036 2.338-2.313 2.338-1.278 0-2.314-1.047-2.314-2.338 0-1.291 1.036-2.338 2.314-2.338 1.277 0 2.313 1.047 2.313 2.338zm10.475-9.515c-.646 1.118-2.066 1.507-3.173.868-1.107-.639-1.48-2.063-.835-3.182.646-1.118 2.066-1.506 3.173-.868 1.107.64 1.48 2.064.835 3.182z" fill="#B0E349"/></g></svg>