<svg width="120" height="120" viewBox="0 0 120 120" xmlns="http://www.w3.org/2000/svg" xmlns:xlink="http://www.w3.org/1999/xlink"><title>green icons/file system corruption</title><defs><path id="a" d="M43.355 103.51l6.517-19.836-5.504-9.922 9.931-14.228-6.388 13.639 7.316 9.568-3.368 20.78 33.888 5.994 21.273-4.117L96.726 10l-73.942 6.348-.858 9.779-13.897 2.745L7 50.66l15.784 6.176v47.694z"/></defs><g fill="none" fill-rule="evenodd"><mask id="b" fill="#fff"><use xlink:href="#a"/></mask><g mask="url(#b)"><g transform="translate(12 20)"><path d="M57.662 0H21.535c-1.434 0-2.652.498-3.656 1.494-1.003.996-1.505 2.206-1.505 3.63V76.86c0 1.423.502 2.633 1.505 3.63 1.004.995 2.222 1.494 3.656 1.494H80.02c1.433 0 2.651-.499 3.654-1.495 1.003-.996 1.505-2.206 1.505-3.63V27.88c0-2.26-27.517-26.455-27.517-27.879z" fill="#87BF18"/><path d="M81.525 20.283L64.753 3.629C62.961 1.85 60.595.693 57.657.16v27.17h27.361c-.537-2.92-1.702-5.267-3.493-7.046z" fill="#B0E349"/><rect fill="#B0E349" y="10.47" width="40.621" height="21.32" rx="3"/><path d="M28.5 44.5h42M28.5 53.5h42M28.5 62.5h42" stroke="#B0E349" stroke-width="3" stroke-linecap="square"/><ellipse fill="#BB26B8" cx="71.278" cy="66.5" rx="19.278" ry="19.5"/><path d="M16.175 15.661V27h-2.754v-7.667l-3.332 4.437-3.247-4.42V27H4.207V15.661h2.805l3.179 4.42 3.247-4.42h2.737zm2.414 0h7.718v2.125h-4.964v2.703h4.284v2.159h-4.284V27h-2.754V15.661zm12.07 2.125H27.48v-2.125h9.163v2.125h-3.23V27h-2.754v-9.214zM69.88 63.624L59.574 73.928A1.878 1.878 0 0 0 59 75.305c0 .545.192.999.575 1.362l1.604 1.634c.393.374.852.56 1.377.56.535 0 .988-.186 1.362-.56l10.319-10.32a7.719 7.719 0 0 1-2.625-1.732 7.714 7.714 0 0 1-1.733-2.625zm-5.675 11.394a.932.932 0 0 1-.68.287.931.931 0 0 1-.682-.287.93.93 0 0 1-.287-.681c0-.262.096-.49.287-.681a.93.93 0 0 1 .681-.288c.263 0 .49.096.681.288a.932.932 0 0 1 .288.68.93.93 0 0 1-.288.682zM83.702 61.02a.563.563 0 0 1 .129.378c0 .394-.117.928-.348 1.604-.474 1.352-1.304 2.449-2.49 3.291-1.185.842-2.488 1.264-3.911 1.264-1.866 0-3.462-.664-4.789-1.99-1.326-1.327-1.99-2.923-1.99-4.79 0-1.865.663-3.462 1.99-4.788C73.62 54.663 75.216 54 77.082 54c.585 0 1.198.083 1.838.25.64.166 1.183.4 1.627.703.161.111.242.253.242.424 0 .171-.08.313-.242.424l-4.433 2.557v3.39l2.92 1.619 1.196-.734c.746-.46 1.43-.868 2.05-1.226.62-.358.976-.537 1.067-.537.15 0 .27.05.355.151z" fill="#FFF"/></g></g></g></svg>