<svg width="120" height="120" viewBox="0 0 120 120" xmlns="http://www.w3.org/2000/svg"><title>green icons/file recovery</title><g fill="none" fill-rule="evenodd"><path d="M74.288 20H38.16c-1.433 0-2.652.498-3.655 1.494C33.501 22.49 33 23.7 33 25.124V96.86c0 1.423.501 2.633 1.505 3.63 1.003.995 2.222 1.494 3.655 1.494h58.486c1.433 0 2.65-.499 3.653-1.495 1.004-.996 1.505-2.206 1.505-3.63V47.88c0-2.26-27.516-26.455-27.516-27.879z" fill="#87BF18"/><path d="M97.868 40.123L81.097 23.47C79.304 21.69 76.939 20.533 74 20v27.168h27.362c-.538-2.918-1.703-5.266-3.494-7.045z" fill="#B0E349"/><rect fill="#B0E349" x="16" y="31" width="40.621" height="21.32" rx="3"/><path d="M44.5 64.5h42M44.5 73.5h42M44.5 82.5h42" stroke="#B0E349" stroke-width="3" stroke-linecap="square"/><ellipse fill="#BB26B8" cx="87.278" cy="86.5" rx="19.278" ry="19.5"/><path d="M98.599 75.133c-.45-.185-.832-.109-1.15.23l-2.136 2.12a12.754 12.754 0 0 0-4.018-2.571A12.38 12.38 0 0 0 86.62 74a12.28 12.28 0 0 0-4.897 1.002c-1.555.669-2.897 1.567-4.026 2.695-1.128 1.129-2.026 2.47-2.695 4.026A12.279 12.279 0 0 0 74 86.62c0 1.708.334 3.34 1.002 4.896.669 1.556 1.567 2.898 2.695 4.026 1.129 1.128 2.47 2.027 4.026 2.695a12.276 12.276 0 0 0 4.897 1.002c1.884 0 3.676-.397 5.373-1.191a12.34 12.34 0 0 0 4.339-3.36.54.54 0 0 0 .123-.37.455.455 0 0 0-.156-.337l-2.251-2.267a.632.632 0 0 0-.411-.148c-.176.022-.301.088-.378.197a8.247 8.247 0 0 1-2.942 2.416 8.286 8.286 0 0 1-3.697.854 8.194 8.194 0 0 1-3.261-.665 8.472 8.472 0 0 1-2.687-1.8 8.48 8.48 0 0 1-1.8-2.686 8.194 8.194 0 0 1-.665-3.262c0-1.14.222-2.227.666-3.262a8.473 8.473 0 0 1 1.799-2.686 8.478 8.478 0 0 1 2.687-1.8 8.197 8.197 0 0 1 3.261-.665c2.202 0 4.114.75 5.735 2.251l-2.268 2.267c-.34.33-.416.707-.23 1.134.186.438.51.658.97.658h7.361c.285 0 .532-.105.74-.313.208-.208.312-.454.312-.74v-7.36c0-.46-.213-.784-.641-.97zM21 36.255h4.556c1.904 0 3.315.473 4.233 1.42.918.946 1.377 2.365 1.377 4.258 0 1.881-.459 3.295-1.377 4.242-.918.946-2.329 1.419-4.233 1.419H21V36.255zm4.233 9.214c1.031 0 1.808-.289 2.329-.867.521-.578.782-1.468.782-2.669 0-1.224-.26-2.122-.782-2.694-.521-.573-1.298-.859-2.329-.859h-1.479v7.089h1.479zm8.84.884c-.975-.986-1.462-2.46-1.462-4.42 0-1.927.479-3.391 1.437-4.395.957-1.003 2.32-1.504 4.088-1.504 1.734 0 3.091.49 4.072 1.47.98.98 1.47 2.451 1.47 4.412 0 1.927-.479 3.394-1.436 4.403-.958 1.009-2.327 1.513-4.106 1.513-1.734 0-3.088-.493-4.063-1.479zm6.086-1.632c.453-.567.68-1.502.68-2.805 0-1.303-.224-2.235-.672-2.796-.447-.562-1.124-.842-2.031-.842-.895 0-1.567.283-2.015.85-.447.567-.671 1.507-.671 2.822 0 1.292.224 2.218.671 2.78.448.56 1.12.841 2.015.841s1.57-.283 2.023-.85zm4.896-2.788c0-3.955 1.859-5.933 5.576-5.933 1.145 0 2.346.278 3.604.833v2.397c-1.088-.725-2.165-1.088-3.23-1.088-1.043 0-1.822.292-2.338.875-.515.584-.773 1.556-.773 2.916 0 1.36.263 2.323.79 2.89.528.567 1.34.85 2.44.85.453 0 .946-.085 1.479-.255a6.767 6.767 0 0 0 1.632-.799v2.397c-.465.238-1.031.43-1.7.578a8.858 8.858 0 0 1-1.904.221c-3.717 0-5.576-1.96-5.576-5.882z" fill="#FFF"/></g></svg>