<svg width="120" height="120" viewBox="0 0 120 120" xmlns="http://www.w3.org/2000/svg"><title>green icons/firmware failure</title><g fill="none" fill-rule="evenodd"><path d="M39 70.5h-4c-.837 0-1.5.672-1.5 1.5 0 .834.672 1.5 1.5 1.5h4v4.496A3.007 3.007 0 0 0 42.004 81H47v4.5c0 .837.672 1.5 1.5 1.5.834 0 1.5-.672 1.5-1.5V81h5v4.5c0 .837.672 1.5 1.5 1.5.834 0 1.5-.672 1.5-1.5V81h5v4.5c0 .837.672 1.5 1.5 1.5.834 0 1.5-.672 1.5-1.5V81h5v4.5c0 .837.672 1.5 1.5 1.5.834 0 1.5-.672 1.5-1.5V81h3.996A3.007 3.007 0 0 0 81 77.996V73.5h5c.837 0 1.5-.672 1.5-1.5 0-.834-.672-1.5-1.5-1.5h-5v-5h5c.837 0 1.5-.672 1.5-1.5 0-.834-.672-1.5-1.5-1.5h-5v-5h5c.837 0 1.5-.672 1.5-1.5 0-.834-.672-1.5-1.5-1.5h-5v-5h5c.837 0 1.5-.672 1.5-1.5 0-.834-.672-1.5-1.5-1.5h-5v-4.496A3.007 3.007 0 0 0 77.996 39H74v-4.5c0-.837-.672-1.5-1.5-1.5-.834 0-1.5.672-1.5 1.5V39h-5v-4.5c0-.837-.672-1.5-1.5-1.5-.834 0-1.5.672-1.5 1.5V39h-5v-4.5c0-.837-.672-1.5-1.5-1.5-.834 0-1.5.672-1.5 1.5V39h-5v-4.5c0-.837-.672-1.5-1.5-1.5-.834 0-1.5.672-1.5 1.5V39h-4.996A3.007 3.007 0 0 0 39 42.004V46.5h-4c-.837 0-1.5.672-1.5 1.5 0 .834.672 1.5 1.5 1.5h4v5h-4c-.837 0-1.5.672-1.5 1.5 0 .834.672 1.5 1.5 1.5h4v5h-4c-.837 0-1.5.672-1.5 1.5 0 .834.672 1.5 1.5 1.5h4v5zm21 33.511c-24.3 0-44-19.925-44-44.505C16 34.926 35.7 15 60 15s44 19.926 44 44.506c0 24.58-19.7 44.505-44 44.505z" fill="#87BF18"/><rect fill="#B0E349" x="44" y="44" width="32" height="32" rx="2"/><ellipse fill="#BB26B8" cx="85.5" cy="85" rx="19.5" ry="19"/><path d="M85.678 82.142l5.654-5.654a2.002 2.002 0 0 1 2.834 0l.7.7a2 2 0 0 1 .002 2.835l-5.655 5.655 5.655 5.654a2.002 2.002 0 0 1-.001 2.834l-.7.7a2 2 0 0 1-2.835.002l-5.654-5.655-5.655 5.655a2.002 2.002 0 0 1-2.834-.001l-.7-.7a2 2 0 0 1-.001-2.835l5.654-5.654-5.654-5.655a2.002 2.002 0 0 1 0-2.834l.7-.7a2 2 0 0 1 2.835-.001l5.655 5.654z" fill="#FFF"/></g></svg>