<svg xmlns="http://www.w3.org/2000/svg" viewBox="0 0 120 120"><path d="M84.4 74.9c-2.2 1.7-4.4 3.4-6.7 4.8s-5.2 3.2-8 2.1c-.3 1.1-1.6 2.4-2.6 3-1.6 1-3.8.7-5.1-.7-1.3-1.4-1.5-3.5-.5-5 .6-1 1.8-2.1 2.9-2.4-1.5-3.4 1.5-7.3 3.3-10 2.1-3.1 4.5-6 7-8.9-.3-2.2.8-3.7 2.2-5.1L88 41.6c-.2-.3-.4-.5-.7-.8L70.4 22.3c-2-2.1-4.7-3.3-7.6-3.3H26.7c-2.6 0-4.8 2.1-4.8 4.8v72c0 2.6 2.1 4.8 4.8 4.8h58.8c2.6 0 4.8-2.1 4.8-4.8v-26c-1.9 1.8-3.8 3.5-5.9 5.1z" fill="#87be18"/><path d="M46.3 50.7H8.6c-1.7 0-3.1-1.4-3.1-3.1V32.3c0-1.7 1.4-3.1 3.1-3.1h37.8c1.7 0 3.1 1.4 3.1 3.1v15.3c-.1 1.7-1.5 3.1-3.2 3.1z" fill="#b1e34b"/><path d="M88.2 41.5c-.2-.3-.4-.6-.7-.8L70.4 22.3c-1.9-2.1-4.6-3.2-7.4-3.3v27h20.7l4.5-4.5z" fill="#afe34c"/><path d="M67.8 64.9H32.5v-3.3h35.3v3.3zm-4.4 5.8H32.5V74h30.9v-3.3zm-24.7 9.2h-6.2v3.3h6.2v-3.3zm21.9 0H41.3v3.3h19.2v-3.3z" fill="#b1e34b"/><path d="M17.3 44.8h-2v-4.1h-3.8v4.1h-2v-9.5h2v3.9h3.8v-3.9h2v9.5zm8.7-8h-3v7.9h-2v-7.9h-2.9v-1.6H26v1.6zm3.6-1.6l2.4 6.9 2.4-6.9H37v9.5h-2v-2.6l.2-4.5-2.6 7.1h-1.3l-2.6-7.1.2 4.5v2.6h-2v-9.5h2.7zm11.2 8H45v1.6h-6.1v-9.5h2v7.9z" fill="#fff"/><path d="M63.6 79.8l1-1c.4-.4 1-.4 1.4 0l1.5 1.5c.4.4.4 1 0 1.4l-1 1c-.8.8-2.1.8-2.9 0-.8-.8-.8-2.1 0-2.9zm25.8-27.4l-4.1 4.1c.1 1.5-.4 3.1-1.6 4.3-2.2 2.2-5.7 2.2-7.8 0-.2-.2-.4-.4-.5-.6-3.5 4.1-6.3 7.9-8.1 11.3-1.9 3.5-.8 4.6.3 5.7l1.6 1.6c1.1 1.1 2.2 2.2 5.7.3 6.3-3.4 14.2-10.2 22.5-18.9l-8-7.8zM100.8 36l-5.7 4.8h-3.4l-14 14c-1.2 1.2-1.2 3 0 4.2 1.2 1.2 3 1.2 4.2 0 .9-.9 1.1-2.2.6-3.3l7.6-7.6h3.6l-2.5 2.5 7.8 7.8c3.7-4 7.5-8.3 11.3-12.8 1.7-2 2.1-5.5.6-7l-3.2-3.2c-1.5-1.5-4.9-1-6.9.6z" fill="#bc25b9"/></svg>