<svg width="120" height="120" viewBox="0 0 120 120" xmlns="http://www.w3.org/2000/svg" xmlns:xlink="http://www.w3.org/1999/xlink"><title>green icons/imaging</title><defs><path d="M9 19h57v82H9V19zm60 5h22v72H69V24zm25 6h18v61H94V30z" id="a"/></defs><g fill="none" fill-rule="evenodd"><mask id="b" fill="#fff"><use xlink:href="#a"/></mask><g mask="url(#b)"><g transform="translate(69 30)"><rect fill="#87BF18" y="1.034" width="42.198" height="59.966" rx="3"/><rect fill="#B0E349" x="2.058" y="9.305" width="38.081" height="43.424" rx="3"/><ellipse fill="#FFF" cx="38.081" cy="5.169" rx="2.058" ry="2.068"/><ellipse fill="#FFF" cx="4.117" cy="5.169" rx="2.058" ry="2.068"/><ellipse fill="#FFF" cx="4.117" cy="56.864" rx="2.058" ry="2.068"/><ellipse fill="#FFF" cx="38.081" cy="56.864" rx="2.058" ry="2.068"/><path fill="#B0E349" d="M8.234 0h15.438v5.169H8.234zM25.73 0h8.234v5.169H25.73z"/></g><g transform="translate(41 24)"><rect fill="#87BF18" y="1.22" width="50.049" height="70.78" rx="3"/><rect fill="#B0E349" x="2.441" y="10.983" width="45.166" height="51.254" rx="3"/><ellipse fill="#FFF" cx="45.166" cy="6.102" rx="2.441" ry="2.441"/><ellipse fill="#FFF" cx="45.166" cy="67.119" rx="2.441" ry="2.441"/><path fill="#B0E349" d="M30.518 0h9.766v6.102h-9.766z"/></g><g transform="translate(9 19)"><rect fill="#87BF18" y="1.39" width="57" height="80.61" rx="3"/><rect fill="#B0E349" x="2.78" y="12.508" width="51.439" height="58.373" rx="3"/><ellipse fill="#FFF" cx="51.439" cy="6.949" rx="2.78" ry="2.78"/><ellipse fill="#FFF" cx="5.561" cy="6.949" rx="2.78" ry="2.78"/><ellipse fill="#FFF" cx="5.561" cy="76.441" rx="2.78" ry="2.78"/><ellipse fill="#FFF" cx="51.439" cy="76.441" rx="2.78" ry="2.78"/><path fill="#B0E349" d="M11.122 0h20.854v6.949H11.122zM34.756 0h11.122v6.949H34.756z"/></g></g></g></svg>