<svg xmlns="http://www.w3.org/2000/svg" viewBox="0 0 120 120"><ellipse fill="#87BF18" cx="60" cy="59.5" rx="44" ry="44.5"/><path fill="#FFF" d="M39 45c1.1 0 2 .9 2 2v28c0 1.1-.9 2-2 2s-2-.9-2-2V47c0-1.1.9-2 2-2zm7 0c1.1 0 2 .9 2 2v28c0 1.1-.9 2-2 2s-2-.9-2-2V47c0-1.1.9-2 2-2zm7 0c1.1 0 2 .9 2 2v28c0 1.1-.9 2-2 2s-2-.9-2-2V47c0-1.1.9-2 2-2zm7 0c1.1 0 2 .9 2 2v28c0 1.1-.9 2-2 2s-2-.9-2-2V47c0-1.1.9-2 2-2z"/><path fill="#B0E349" d="M67 45c1.1 0 2 .9 2 2v28c0 1.1-.9 2-2 2s-2-.9-2-2V47c0-1.1.9-2 2-2zm7 0c1.1 0 2 .9 2 2v28c0 1.1-.9 2-2 2s-2-.9-2-2V47c0-1.1.9-2 2-2zm7 0c1.1 0 2 .9 2 2v28c0 1.1-.9 2-2 2s-2-.9-2-2V47c0-1.1.9-2 2-2z"/></svg>