<svg xmlns="http://www.w3.org/2000/svg" viewBox="0 0 120 120"><circle cx="60" cy="60" r="44" fill="#89be17"/><path d="M60 64.5c-2.5 0-4.5-2-4.5-4.5V30c0-2.5 2-4.5 4.5-4.5s4.5 2 4.5 4.5v30c0 2.5-2 4.5-4.5 4.5z" fill="#fff"/><path d="M60 89c-15.7 0-28.5-12.7-28.5-28.4 0-10 5.1-19 13.7-24.2 1.4-.9 3.3-.4 4.1 1 .9 1.4.4 3.3-1 4.1-6.7 4.1-10.8 11.2-10.8 19.1C37.5 73 47.6 83 60 83s22.5-10 22.5-22.4c0-7.9-4-15-10.8-19.1-1.4-.9-1.9-2.7-1-4.1.9-1.4 2.7-1.9 4.1-1 8.6 5.2 13.7 14.2 13.7 24.2C88.5 76.3 75.7 89 60 89z" fill="#fff"/></svg>