<svg width="120" height="120" viewBox="0 0 120 120" xmlns="http://www.w3.org/2000/svg"><title>green icons/safer recovery</title><g fill="none" fill-rule="evenodd"><ellipse fill="#87BF18" cx="60" cy="59.506" rx="44" ry="44.506"/><path d="M59.829 29c-5.915 0-17.593 2.31-24.331 6.036-.824.447-1.498.969-1.498 2.906V70.36c0 2.608.3 5.663 2.396 8.346s9.807 12.072 23.283 17.96c.202.081.38.116.38.116l.266-.116c13.473-5.89 21.183-15.277 23.28-17.96C85.7 76.022 86 72.967 86 70.36V37.942c0-1.937-.674-2.459-1.498-2.906-6.605-3.653-17.96-5.945-23.976-6.033C60.524 29 65.534 29 60.175 29h-.346z" fill="#B0E349"/><path d="M57.764 67.612c-.021.11-.032.223-.032.34v3.597c0 .97.791 1.759 1.768 1.759a1.76 1.76 0 0 0 1.768-1.76v-3.597c0-.116-.011-.229-.033-.338a2.49 2.49 0 0 0 .74-1.776 2.483 2.483 0 0 0-2.475-2.49 2.483 2.483 0 0 0-2.476 2.49c0 .695.284 1.323.74 1.775zM45 59.53a4.006 4.006 0 0 1 4.002-4.01h20.996A3.999 3.999 0 0 1 74 59.53V74.99A4.006 4.006 0 0 1 69.998 79H49.002A3.999 3.999 0 0 1 45 74.99V59.53zm25.035-5.433h-4.496V52.92c0-3.284-2.641-5.938-5.9-5.938-3.252 0-5.9 2.658-5.9 5.938v1.177h-4.495v-1.634C49.244 46.684 53.897 42 59.639 42s10.396 4.676 10.396 10.462v1.634z" fill="#FFF"/></g></svg>