<svg width="120" height="120" viewBox="0 0 120 120" xmlns="http://www.w3.org/2000/svg"><title>green icons/sector map</title><g fill="none" fill-rule="evenodd"><g transform="translate(14 19)"><rect fill="#87BF18" x=".25" y=".355" width="92" height="82" rx="6"/><rect fill="#B0E349" x="4.548" y="21" width="83.404" height="57" rx="3"/><path fill="#FFF" d="M9.447 24.583h6.889v5.583H9.447zM19.092 24.583h6.889v5.583h-6.889zM28.737 24.583h6.889v5.583h-6.889zM38.382 24.583h6.889v5.583h-6.889zM48.027 24.583h6.889v5.583h-6.889zM57.671 24.583h6.889v5.583h-6.889zM67.316 24.583h6.889v5.583h-6.889zM76.961 24.583h6.889v5.583h-6.889zM9.447 32.028h6.889v5.583H9.447zM19.092 32.028h6.889v5.583h-6.889zM28.737 32.028h6.889v5.583h-6.889zM38.382 32.028h6.889v5.583h-6.889zM48.027 32.028h6.889v5.583h-6.889zM57.671 32.028h6.889v5.583h-6.889zM67.316 32.028h6.889v5.583h-6.889zM76.961 32.028h6.889v5.583h-6.889z"/><path fill="#BB26B8" d="M9.447 39.472h6.889v5.583H9.447zM19.092 39.472h6.889v5.583h-6.889zM28.737 39.472h6.889v5.583h-6.889zM38.382 39.472h6.889v5.583h-6.889zM48.027 39.472h6.889v5.583h-6.889z"/><path fill="#FFF" d="M57.671 39.472h6.889v5.583h-6.889zM67.316 39.472h6.889v5.583h-6.889zM76.961 39.472h6.889v5.583h-6.889zM9.447 46.917h6.889V52.5H9.447zM19.092 46.917h6.889V52.5h-6.889zM28.737 46.917h6.889V52.5h-6.889z"/><path fill="#BB26B8" d="M38.382 46.917h6.889V52.5h-6.889zM48.027 46.917h6.889V52.5h-6.889zM57.671 46.917h6.889V52.5h-6.889zM67.316 46.917h6.889V52.5h-6.889zM76.961 46.917h6.889V52.5h-6.889z"/><path fill="#FFF" d="M9.447 54.361h6.889v5.583H9.447zM19.092 54.361h6.889v5.583h-6.889zM28.737 54.361h6.889v5.583h-6.889zM38.382 54.361h6.889v5.583h-6.889zM48.027 54.361h6.889v5.583h-6.889zM57.671 54.361h6.889v5.583h-6.889zM67.316 54.361h6.889v5.583h-6.889zM76.961 54.361h6.889v5.583h-6.889zM9.447 61.806h6.889v5.583H9.447zM19.092 61.806h6.889v5.583h-6.889zM28.737 61.806h6.889v5.583h-6.889zM38.382 61.806h6.889v5.583h-6.889zM48.027 61.806h6.889v5.583h-6.889zM57.671 61.806h6.889v5.583h-6.889zM67.316 61.806h6.889v5.583h-6.889zM76.961 61.806h6.889v5.583h-6.889zM9.447 69.25h6.889v5.583H9.447zM19.092 69.25h6.889v5.583h-6.889zM28.737 69.25h6.889v5.583h-6.889zM38.382 69.25h6.889v5.583h-6.889zM48.027 69.25h6.889v5.583h-6.889zM57.671 69.25h6.889v5.583h-6.889zM67.316 69.25h6.889v5.583h-6.889zM76.961 69.25h6.889v5.583h-6.889z"/></g><path d="M53.968 24v11.339h-2.754v-7.667l-3.332 4.437-3.247-4.42v7.65H42V24h2.805l3.179 4.42L51.231 24h2.737zm9.078 8.891h-4.233l-.816 2.448h-2.601L59.68 24h3.009l4.012 11.339h-2.822l-.833-2.448zm-.68-2.023l-1.445-4.284-1.428 4.284h2.873zm8.517 4.471h-2.754V24h5.1c1.36 0 2.411.306 3.153.918.743.612 1.114 1.536 1.114 2.771 0 1.258-.377 2.227-1.13 2.907-.754.68-1.8 1.02-3.137 1.02h-2.346v3.723zm2.006-5.848c.555 0 .966-.144 1.233-.433.266-.29.399-.683.399-1.182 0-1.156-.544-1.734-1.632-1.734h-2.006v3.349h2.006z" fill="#FFF"/></g></svg>