<svg width="120" height="120" viewBox="0 0 120 120" xmlns="http://www.w3.org/2000/svg"><title>green icons/support</title><g fill="none" fill-rule="evenodd"><circle fill="#87BF18" cx="60" cy="60" r="45"/><path d="M56.695 54.076L35.199 75.57c-.8.8-1.199 1.757-1.199 2.872 0 1.137.4 2.084 1.2 2.841l3.345 3.41c.821.778 1.779 1.167 2.873 1.167 1.115 0 2.062-.389 2.84-1.168l21.527-21.527a16.102 16.102 0 0 1-5.476-3.614 16.09 16.09 0 0 1-3.614-5.476zM44.858 77.844c-.4.4-.873.6-1.42.6-.547 0-1.02-.2-1.42-.6-.4-.4-.6-.874-.6-1.42 0-.548.2-1.022.6-1.422.4-.4.872-.6 1.42-.6.547 0 1.02.2 1.42.6.4.4.6.874.6 1.421s-.2 1.02-.6 1.42zM85.53 48.646c.178.21.268.474.267.789 0 .82-.242 1.936-.725 3.346-.99 2.82-2.72 5.108-5.192 6.865-2.473 1.757-5.193 2.636-8.16 2.636-3.893 0-7.223-1.384-9.99-4.15-2.767-2.768-4.151-6.098-4.151-9.991s1.383-7.223 4.15-9.99C64.498 35.384 67.828 34 71.72 34c1.221 0 2.5.174 3.836.52 1.336.348 2.467.837 3.393 1.469.336.231.505.526.505.883 0 .358-.169.653-.505.884L69.7 43.091v7.07l6.092 3.378c.105-.063.936-.573 2.494-1.531 1.557-.958 2.982-1.81 4.277-2.557 1.294-.747 2.036-1.12 2.225-1.12.315 0 .563.104.742.315z" fill="#FFF"/></g></svg>