<?xml version="1.0" encoding="UTF-8"?>
<svg width="220px" height="52px" viewBox="0 0 220 52" version="1.1" xmlns="http://www.w3.org/2000/svg" xmlns:xlink="http://www.w3.org/1999/xlink">
    <!-- Generator: Sketch 48.2 (47327) - http://www.bohemiancoding.com/sketch -->
    <title>DeepSparLogoPMS no tag</title>
    <desc>Created with Sketch.</desc>
    <defs></defs>
    <g id="index-desktop" stroke="none" stroke-width="1" fill="none" fill-rule="evenodd" transform="translate(-402.000000, -3059.000000)">
        <g id="Footer" transform="translate(0.000000, 3059.000000)">
            <g id="DeepSparLogoPMS-no-tag" transform="translate(402.000000, 0.000000)">
                <path d="M218.469837,27.6227586 C218.002114,26.5962069 215.924634,19.6649655 211.441463,16.2365517 C206.288455,12.2971034 198.728862,20.427931 197.827398,21.3137241 C196.319593,22.7993103 194.744715,22.0211034 194.349431,21.649931 C191.154959,18.6554483 187.55,17.4038621 187.55,17.4038621 C187.55,17.4038621 185.925041,13.7898621 181.703902,9.89165517 C177.340569,5.86255172 172.14374,5.3282069 169.383902,4.82613793 L169.233659,5.10496552 C172.070407,6.98234483 176.77626,15.0136552 174.663008,15.0136552 C172.505935,15.0136552 169.270325,14.1018621 164.842602,12.0532414 C159.956992,9.79303448 149.666179,2.75689655 146.602276,0.545103448 L146.373333,0.792551724 C148.203984,3.24372414 153.15935,9.44517241 151.941301,11.5144138 C150.511301,13.9449655 143.085854,16.8255862 140.296504,17.8395862 L140.382358,18.1677241 C145.335935,17.966 164.755854,17.3133103 169.621789,18.9208276 C175.209431,20.7650345 161.520244,23.7003448 163.240894,30.4244828 C164.961545,37.1477241 173.316179,39.3030345 174.971545,41.0871724 C176.626016,42.8713103 173.36626,45.7851034 173.36626,45.7851034 L175.22374,47.4975172 C175.22374,47.4975172 176.956016,47.6974483 179.778455,45.5242069 C182.726992,43.2532414 203.348862,56.3581379 205.701789,50.2624828 C207.965285,44.4053103 205.221545,39.3254483 205.221545,39.3254483 L204.93626,39.4922069 C206.539756,43.1447586 205.605203,50.6793793 202.782764,49.452 C202.536829,49.3453103 202.29,49.2404138 202.047642,49.1373103 C203.55813,43.7893793 201.173902,39.3729655 201.173902,39.3729655 L200.889512,39.5397241 C202.014553,42.1047586 201.886667,46.5821379 200.73748,48.5975862 C199.918293,48.2667586 199.114309,47.9601379 198.330894,47.6750345 C199.077642,43.0291034 197.125366,39.4186897 197.125366,39.4186897 L196.840976,39.5863448 C197.757642,41.6717241 197.845285,45.0185517 197.228211,47.2823448 C187.97748,44.0726897 181.693171,43.8996552 181.693171,43.8996552 C181.693171,43.8996552 194.416504,28.6537931 196.185447,28.6995172 C198.917561,28.7685517 200.257236,37.0266897 200.257236,37.0266897 L200.754472,36.9621379 C200.754472,36.9621379 200.178537,31.9656552 198.143984,28.0181379 C197.704878,27.17 197.591301,26.9826207 197.549268,26.745931 C197.464309,26.268069 198.721707,24.2822069 199.401382,23.3793793 C199.99878,22.5850345 207.045041,13.0089655 211.504065,17.0237241 C215.963089,21.0384828 217.507561,26.5468966 217.566585,27.7016552 C217.626504,28.8474483 216.24122,32.6793103 218.770325,32.1126897 C221.444309,31.512 218.859756,28.4816552 218.469837,27.6227586" id="Fill-1" fill="#656E79"></path>
                <path d="M186.335528,23.365931 C185.730081,23.4089655 185.184553,23.7066207 184.711463,24.2526207 C183.430813,25.7328276 183.588211,27.9822759 185.062927,29.2670345 C185.778374,29.8910345 186.692358,30.1976552 187.637642,30.1304138 C188.582033,30.0658621 189.445041,29.6328276 190.066585,28.9155862 C190.361707,28.5748966 190.555772,28.2198621 190.654146,27.854069 C190.709593,27.6335172 190.730163,27.4084828 190.714959,27.1807586 C190.643415,26.1622759 189.837642,25.3329655 189.060488,24.6551724 C188.283333,23.9782759 187.350569,23.2951034 186.335528,23.365931" id="Fill-5" fill="#C7CDD4"></path>
                <path d="M186.791626,28.3534483 C185.916992,27.5922759 185.823984,26.26 186.584146,25.3849655 C186.882846,25.0397931 187.084959,25.0254483 187.152033,25.0209655 C187.625122,24.9877931 188.341463,25.5588966 188.836911,25.991931 C189.335041,26.4258621 189.998618,27.0552414 190.031707,27.5295172 C190.035285,27.5985517 190.051382,27.8002759 189.752683,28.1445517 C189.386016,28.5704138 188.873577,28.825931 188.314634,28.8644828 C187.755691,28.903931 187.212846,28.7228276 186.791626,28.3534483" id="Fill-6" fill="#7C858E"></path>
                <path d="M13.0560163,17.125931 C11.9980488,17.125931 6.39520325,17.3025517 6.39520325,17.3025517 L6.39520325,38.6602069 C6.39520325,41.6690345 7.49878049,42.5969655 13.0560163,42.5969655 C20.2462602,42.5969655 25.4073171,36.4941379 25.4073171,29.4633793 C25.4073171,22.0345517 19.849187,17.125931 13.0560163,17.125931 Z M13.0998374,43.6575862 C10.7630081,43.6575862 4.05837398,43.5706207 4.05837398,43.5706207 C3.2195122,43.5706207 2.16154472,43.6575862 0.61796748,43.7911724 L0,43.8351034 L0.0438211382,43.2604138 C0.220894309,43.2604138 0.308536585,43.2604138 0.529430894,43.2164828 C2.6900813,42.9941379 3.39658537,42.3764138 3.39658537,40.6075172 L3.39658537,19.1153793 C3.39658537,17.3473793 2.6900813,16.7278621 0.529430894,16.5073103 C0.308536585,16.4624828 0.220894309,16.4624828 0.0438211382,16.4624828 L0,15.8877931 L0.61796748,15.9317241 C2.16154472,16.0644138 3.2195122,16.1522759 4.05837398,16.1522759 C4.05837398,16.1522759 11.2039024,15.9317241 13.0998374,15.9317241 C21.8345528,15.9317241 28.9362602,21.2823448 28.9362602,29.3306897 C28.9362602,36.9809655 22.2754472,43.6575862 13.0998374,43.6575862 L13.0998374,43.6575862 Z" id="Fill-8" fill="#656E79"></path>
                <path d="M43.8998374,43.5213103 C43.8998374,43.5213103 40.8117886,43.4334483 38.8711382,43.3877241 L33.622439,43.3877241 C32.7844715,43.3877241 32.1665041,43.4773793 30.6229268,43.6109655 L30.0049593,43.654 L30.0496748,43.0344828 C30.2258537,43.0344828 30.3143902,43.0344828 30.5343902,42.9905517 C32.695935,42.77 32.9606504,42.1504828 32.9606504,41.0647586 L32.9606504,27.6218621 C32.9606504,25.1706897 32.695935,24.5511724 30.5343902,24.3297241 C30.3143902,24.2857931 30.2258537,24.2857931 30.0496748,24.2857931 L30.0049593,23.6662759 L30.6229268,23.7111034 C32.1665041,23.8437931 32.7844715,23.9316552 33.622439,23.9316552 L43.8560163,23.9316552 L44.6054472,27.5582069 L43.8998374,27.5142759 C43.3704065,25.4791034 43.1056911,25.3473103 41.2526829,25.3033793 L35.7392683,25.2137241 L35.7392683,32.7071034 L42.9295122,32.7071034 L42.9295122,33.6027586 L35.7392683,33.6027586 L35.7392683,40.3815862 C35.7392683,41.9729655 35.8278049,42.0626207 37.2390244,42.0626207 L40.6356098,42.0626207 C42.9295122,42.0626207 43.4142276,41.5318621 44.6054472,39.5406207 L45.5757724,39.4536552 C44.2521951,41.6654483 44.208374,42.3271034 43.8998374,43.5213103" id="Fill-9" fill="#656E79"></path>
                <path d="M60.6976423,43.5213103 C60.6976423,43.5213103 57.6095935,43.4334483 55.6689431,43.3877241 L50.4193496,43.3877241 C49.5813821,43.3877241 48.9643089,43.4773793 47.4198374,43.6109655 L46.8027642,43.654 L46.8465854,43.0344828 C47.0236585,43.0344828 47.1113008,43.0344828 47.3313008,42.9905517 C49.4928455,42.77 49.757561,42.1504828 49.757561,41.0647586 L49.757561,27.6218621 C49.757561,25.1706897 49.4928455,24.5511724 47.3313008,24.3297241 C47.1113008,24.2857931 47.0236585,24.2857931 46.8465854,24.2857931 L46.8027642,23.6662759 L47.4198374,23.7111034 C48.9643089,23.8437931 49.5813821,23.9316552 50.4193496,23.9316552 L60.6529268,23.9316552 L61.403252,27.5582069 L60.6976423,27.5142759 C60.1682114,25.4791034 59.9026016,25.3473103 58.0504878,25.3033793 L52.5370732,25.2137241 L52.5370732,32.7071034 L59.7273171,32.7071034 L59.7273171,33.6027586 L52.5370732,33.6027586 L52.5370732,40.3815862 C52.5370732,41.9729655 52.6247154,42.0626207 54.035935,42.0626207 L57.4325203,42.0626207 C59.7273171,42.0626207 60.2120325,41.5318621 61.403252,39.5406207 L62.3735772,39.4536552 C61.05,41.6654483 61.0052846,42.3271034 60.6976423,43.5213103" id="Fill-10" fill="#656E79"></path>
                <path d="M70.7165854,35.1636552 C70.4518699,35.1636552 70.2309756,35.1636552 69.7900813,35.1197241 L69.7900813,34.5450345 L70.3633333,34.5450345 C73.4066667,34.5450345 76.0976423,32.6434483 76.0976423,29.4597931 C76.0976423,27.0274483 74.334065,24.7717241 70.8042276,24.7717241 C69.0406504,24.7717241 68.6873984,24.8156552 68.6873984,26.1425517 L68.6873984,40.3815862 C68.6873984,42.1504828 68.9521138,42.77 71.1136585,42.9905517 C71.3345528,43.0344828 71.4221951,43.0344828 71.598374,43.0344828 L71.6430894,43.654 L71.025122,43.6109655 C69.4815447,43.4773793 68.8635772,43.3877241 68.0256098,43.3877241 L66.5696748,43.3877241 C65.7326016,43.3877241 65.1146341,43.4773793 63.5710569,43.6109655 L62.9530894,43.654 L62.9978049,43.0344828 C63.1739837,43.0344828 63.261626,43.0344828 63.4825203,42.9905517 C65.644065,42.77 65.9087805,42.1504828 65.9087805,40.3815862 L65.9087805,26.9386897 C65.9087805,25.1706897 65.644065,24.5511724 63.4825203,24.3297241 C63.261626,24.2857931 63.1739837,24.2857931 62.9978049,24.2857931 L62.9530894,23.6662759 L63.5710569,23.7111034 C65.1146341,23.8437931 65.7326016,23.9316552 66.5696748,23.9316552 L66.8791057,23.9316552 C67.4076423,23.9316552 68.5550407,23.7989655 71.8192683,23.7989655 C76.2747154,23.7989655 78.9209756,26.0546897 78.9209756,28.7524138 C78.9209756,32.5537931 75.0826016,35.1636552 70.7165854,35.1636552" id="Fill-11" fill="#656E79"></path>
                <path d="M86.9447154,52 C83.5043089,52 81.2721138,50.7618621 80.3205691,50.4086207 L79.7222764,44.7468966 L80.3393496,44.7468966 C81.0458537,49.1247586 83.0303252,50.8936552 87.0001626,50.8936552 C90.6176423,50.8936552 93.4919512,48.9911724 93.6582927,45.6748276 C93.8308943,42.2275862 91.6380488,40.2363448 86.7515447,37.4068276 C83.5365041,35.5482759 80.6988618,33.2055862 80.8589431,30.021931 C81.0735772,25.7328276 84.3342276,23.1677931 89.0543902,23.1677931 C92.3186179,23.1677931 92.915122,24.4498621 95.6526016,24.405931 L96.1033333,28.6071724 L95.7500813,28.6071724 C94.3639024,24.5825517 91.3384553,24.2293103 88.7798374,24.2293103 C85.9573984,24.2293103 83.8280488,26.2196552 83.6992683,28.7837931 C83.5526016,31.702069 86.0817073,33.1616552 88.9506504,34.8866207 C93.2791057,37.4068276 97.1291057,39.7952414 96.8965854,44.4366897 C96.7034146,48.2837931 92.5466667,52 86.9447154,52" id="Fill-12" fill="#656E79"></path>
                <path d="M106.391463,35.1636552 C106.127642,35.1636552 105.906748,35.1636552 105.465854,35.1197241 L105.465854,34.5450345 L106.039106,34.5450345 C109.082439,34.5450345 111.77252,32.6434483 111.77252,29.4597931 C111.77252,27.0274483 110.008943,24.7717241 106.48,24.7717241 C104.715528,24.7717241 104.362276,24.8156552 104.362276,26.1425517 L104.362276,40.3815862 C104.362276,42.1504828 104.627886,42.77 106.789431,42.9905517 C107.009431,43.0344828 107.097073,43.0344828 107.274146,43.0344828 L107.317073,43.654 L106.700894,43.6109655 C105.156423,43.4773793 104.53935,43.3877241 103.701382,43.3877241 L102.245447,43.3877241 C101.40748,43.3877241 100.790407,43.4773793 99.245935,43.6109655 L98.6288618,43.654 L98.6726829,43.0344828 C98.8488618,43.0344828 98.9373984,43.0344828 99.1573984,42.9905517 C101.318943,42.77 101.583659,42.1504828 101.583659,40.3815862 L101.583659,26.9386897 C101.583659,25.1706897 101.318943,24.5511724 99.1573984,24.3297241 C98.9373984,24.2857931 98.8488618,24.2857931 98.6726829,24.2857931 L98.6288618,23.6662759 L99.245935,23.7111034 C100.790407,23.8437931 101.40748,23.9316552 102.245447,23.9316552 L102.553984,23.9316552 C103.084309,23.9316552 104.230813,23.7989655 107.495041,23.7989655 C111.949593,23.7989655 114.595854,26.0546897 114.595854,28.7524138 C114.595854,32.5537931 110.758374,35.1636552 106.391463,35.1636552" id="Fill-13" fill="#656E79"></path>
                <path d="M140.282195,34.874069 L140.282195,26.1425517 C140.282195,24.8156552 140.635447,24.7717241 142.400813,24.7717241 C145.929756,24.7717241 147.693333,27.3690345 147.693333,29.8013793 C147.693333,33.1356552 146.193577,34.1666897 144.165285,34.874069 L140.282195,34.874069 Z M119.044146,35.5769655 C119.663008,28.6 121.603659,24.500069 124.118455,23.1283448 C126.632358,24.5431034 128.615935,28.643931 129.190976,35.5769655 L119.044146,35.5769655 Z M134.749106,42.856069 C132.610813,42.6651034 132.322846,42.1504828 132.322846,40.3815862 L132.322846,40.1171034 C132.156504,31.0233793 129.797317,25.3150345 124.118455,22.0228966 C118.537967,25.3078621 116.067886,31.0744828 115.957886,40.2049655 L115.957886,40.3815862 C115.957886,42.1504828 115.692276,42.77 113.531626,42.9905517 C113.311626,43.0344828 113.223089,43.0344828 113.046016,43.0344828 L113.002195,43.654 L113.619268,43.6109655 C115.162846,43.4773793 115.781707,43.3877241 116.617886,43.3877241 L118.207967,43.3877241 C119.044146,43.3877241 119.663008,43.4773793 121.206585,43.6109655 L121.823659,43.654 L121.779837,43.0344828 C121.603659,43.0344828 121.516016,43.0344828 121.296016,42.9905517 C119.133577,42.77 118.869756,42.1504828 118.869756,40.3815862 L118.869756,40.2049655 C118.869756,39.2770345 118.913577,37.7528966 118.957398,36.5048966 L129.321545,36.5048966 C129.367154,37.7089655 129.410976,39.2331034 129.410976,40.1171034 L129.410976,40.3815862 C129.410976,42.1504828 129.147154,42.77 126.984715,42.9905517 C126.764715,43.0344828 126.675285,43.0344828 126.499106,43.0344828 L126.455285,43.654 L127.074146,43.6109655 C128.615935,43.4773793 129.234797,43.3877241 130.072764,43.3877241 L131.661057,43.3877241 C132.499024,43.3877241 133.693821,43.3796552 134.659675,43.4737931 C134.835854,43.4917241 134.989675,43.4917241 135.166748,43.4737931 C136.321301,43.3581379 137.327398,43.3877241 138.165366,43.3877241 L139.622195,43.3877241 C140.459268,43.3877241 141.077236,43.4773793 142.621707,43.6109655 L143.237886,43.654 L143.194065,43.0344828 C143.017886,43.0344828 142.928455,43.0344828 142.708455,42.9905517 C140.547805,42.77 140.282195,42.1504828 140.282195,40.3815862 L140.282195,35.7724138 L143.061707,35.7724138 C143.547317,36.0234483 143.899675,36.200069 144.076748,36.3775862 C145.753577,37.7475172 158.914228,51.8144138 167.208049,51.8144138 C169.764878,51.8144138 171.705528,51.0613103 172.060569,50.2212414 C170.250488,50.9734483 167.73748,50.9734483 165.839756,50.31 C159.576911,48.143931 148.972195,36.9531724 146.325935,35.0515862 C148.222764,34.2984828 150.516667,32.8290345 150.516667,29.094 C150.516667,26.3962759 147.870407,23.7989655 143.414065,23.7989655 C140.151626,23.7989655 139.004228,23.9316552 138.474797,23.9316552 L138.165366,23.9316552 C137.327398,23.9316552 136.710325,23.8437931 135.166748,23.7111034 L134.547886,23.6662759 L134.593496,24.2857931 C134.769675,24.2857931 134.857317,24.2857931 135.077317,24.3297241 C137.239756,24.5511724 137.505366,25.1706897 137.505366,27.6218621 L137.505366,41.0647586 C137.505366,42.1504828 137.210244,42.6776552 135.077317,42.856069 C135.005772,42.8632414 134.851951,42.8632414 134.749106,42.856069 L134.749106,42.856069 Z" id="Fill-14" fill="#656E79"></path>
            </g>
        </g>
    </g>
</svg>