<svg xmlns="http://www.w3.org/2000/svg" viewBox="0 0 120 90"><title>icon8</title><path fill="#87BF18" d="M25.5 30.6h-.6C11.1 30.6 0 41.9 0 55.7s11.1 25.1 24.8 25.1 24.8-11.2 24.8-25.1c0-1-.1-2-.2-3C37.7 51 28.1 42.2 25.5 30.6zm52.1-8.9C76.2 9.5 65.9 0 53.3 0 39.8 0 28.8 11 28.8 24.5S39.8 49 53.3 49c5.2 0 10-1.6 13.9-4.4v-1c0-8.8 4.1-16.7 10.4-21.9zm17.9-2.6c13.5 0 24.5 11 24.5 24.5s-11 24.5-24.5 24.5S71 57.2 71 43.6s11-24.5 24.5-24.5zM53.9 89.4l1.4-4.5 4.5-1.4-4.5-1.4-1.4-4.5-1.4 4.5-4.5 1.4 4.5 1.4 1.4 4.5zm9.9-13.5l2.8 9.1 2.8-9.1 9.1-2.8-9.1-2.8-2.8-9.1-2.8 9.1-9.1 2.8 9.1 2.8zM17.1 15.4l-1.8-5.8-1.8 5.8-5.8 1.8 5.8 1.8 1.8 5.8 1.8-5.8 5.8-1.8-5.8-1.8zm66.6 74l1.4-4.5 4.5-1.4-4.5-1.4-1.4-4.5-1.4 4.5-4.5 1.4 4.5 1.4 1.4 4.5z"/><path fill="#FFF" d="M22.5 50l-4.9 2.8v-5.5l5.6-3.2h5.4v25.3h-6.2V50zm39.2-18.6V37H43.9v-4.3c1.6-.9 3.2-2.1 5-3.6 1.7-1.5 3.2-3.1 4.4-4.8 1.2-1.7 1.8-3.1 1.8-4.5 0-1.3-.4-2.3-1.2-2.9-.8-.6-1.8-1-3.2-1-1.1 0-2.2.2-3.2.7-1 .5-2.1 1.2-3.3 2.1v-5.2c2.6-1.6 5.3-2.4 8.4-2.4 2.8 0 4.9.7 6.4 2 1.5 1.4 2.2 3.3 2.2 5.8 0 1.7-.5 3.3-1.4 4.8-.9 1.5-2.1 2.8-3.4 4-1.3 1.2-2.9 2.4-4.7 3.7h10zm25.5 25v-5.2c1.4.8 2.7 1.5 3.7 1.9 1.1.4 2.2.7 3.4.7 1.5 0 2.6-.3 3.4-.8.8-.5 1.2-1.3 1.2-2.3 0-2.2-1.6-3.3-4.8-3.3h-3.8v-4.6h3.8c1.2 0 2.1-.2 2.7-.7.6-.5.9-1.1.9-1.9 0-1-.4-1.7-1.2-2.2-.8-.5-1.8-.7-3-.7-.9 0-1.8.1-2.8.3-.9.2-2 .6-3.2 1.2V34c1-.5 2.1-.9 3.2-1.2 1.1-.3 2.3-.4 3.4-.4 2.5 0 4.7.6 6.4 1.7 1.7 1.2 2.6 2.9 2.6 5.2 0 .9-.2 1.7-.6 2.4-.4.7-.9 1.3-1.5 1.8-.6.4-1.1.7-1.6.8.8.2 1.5.6 2.3 1.2.7.6 1.4 1.3 1.9 2.3.5.9.7 2 .7 3.1 0 2.5-.9 4.4-2.8 5.6-1.9 1.2-4.2 1.8-7 1.8-2.3.1-4.8-.6-7.3-1.9z"/></svg>