<svg xmlns="http://www.w3.org/2000/svg" viewBox="0 0 129 91"><path fill="#87BF18" d="M82.5 0h.8c24.9 0 45 20.1 45 45 0 24.5-19.5 44.4-43.8 45-.1 0-.2.1-.3.1C45.1 90.1 39.5 74.4 24 71c2.9-2.4 5.7-4 9.6-5.3-3.6-1.8-12-7.5-33.5-8.8 4.8-8.1 19-30.6 40.4-34.5-1.6-2.7-5-5.5-10.8-7C32.2 12.9 48.7-.4 82.5 0zm26.2 70.4c14.2-14.2 14.2-37.2 0-51.5S71.5 4.7 57.3 19s-14.2 37.2 0 51.5 37.2 14.1 51.4-.1z"/><path fill="#BB26B8" d="M99.1 30.8c-1-1-2.7-1-3.8 0l-8.1 8.1c-1-.6-2.2-.9-3.4-.9-1.1 0-2.1.3-3 .7L66.9 24.8c-1.1-1.1-3-1.1-4.1 0s-1.1 3 0 4.1l14.3 14.3c-.1.5-.2 1-.2 1.5 0 3.7 3 6.8 6.8 6.8 3.7 0 6.8-3 6.8-6.8 0-.5-.1-1-.2-1.5l8.7-8.7c1.1-1 1.1-2.7.1-3.7z"/><path fill="#B0E349" d="M84.3 15.7c-1.2.7-2.7.3-3.4-.9s-.3-2.7.9-3.4c1.2-.7 2.7-.3 3.4.9.7 1.1.2 2.7-.9 3.4zm14.5 4.5c-1.4 0-2.5-1.1-2.5-2.5s1.1-2.5 2.5-2.5 2.5 1.1 2.5 2.5-1.2 2.5-2.5 2.5zM109 31.4c-1.2-.7-1.6-2.2-.9-3.4s2.2-1.6 3.4-.9c1.2.7 1.6 2.2.9 3.4-.6 1.2-2.2 1.6-3.4.9zm3.3 14.8c-.7-1.2-.3-2.7.9-3.4 1.2-.7 2.7-.3 3.4.9.7 1.2.3 2.7-.9 3.4-1.1.8-2.7.3-3.4-.9zm-4.5 14.6c0-1.4 1.1-2.5 2.5-2.5s2.5 1.1 2.5 2.5-1.1 2.5-2.5 2.5c-1.4-.1-2.5-1.2-2.5-2.5zM96.6 71c.7-1.2 2.2-1.6 3.4-.9 1.2.7 1.6 2.2.9 3.4-.7 1.2-2.2 1.6-3.4.9s-1.6-2.2-.9-3.4zm-14.8 3.3c1.2-.7 2.7-.3 3.4.9.7 1.2.3 2.7-.9 3.4-1.2.7-2.7.3-3.4-.9-.8-1.1-.3-2.7.9-3.4zm-14.5-4.5c1.4 0 2.5 1.1 2.5 2.5s-1.1 2.5-2.5 2.5-2.5-1.1-2.5-2.5 1.1-2.5 2.5-2.5zM57 58.6c1.2.7 1.6 2.2.9 3.4-.7 1.2-2.2 1.6-3.4.9-1.2-.7-1.6-2.2-.9-3.4.6-1.2 2.2-1.6 3.4-.9zm-3.3-14.8c.7 1.2.3 2.7-.9 3.4-1.2.7-2.7.3-3.4-.9-.7-1.2-.3-2.7.9-3.4 1.1-.8 2.7-.3 3.4.9zm4.5-14.6c0 1.4-1.1 2.5-2.5 2.5s-2.5-1.1-2.5-2.5 1.1-2.5 2.5-2.5 2.5 1.2 2.5 2.5zM69.4 19c-.7 1.2-2.2 1.6-3.4.9-1.2-.7-1.6-2.2-.9-3.4s2.2-1.6 3.4-.9c1.2.6 1.6 2.2.9 3.4z"/></svg>