<svg xmlns="http://www.w3.org/2000/svg" viewBox="0 0 91 86"><path fill="#87BF18" d="M43.9 63.2l-3 18.8H80c1.4 0 2.7-.5 3.7-1.5s1.5-2.2 1.5-3.6v-49c0-2.3-27.5-26.5-27.5-27.9H21.5c-1.4 0-2.7.5-3.7 1.5s-1.5 2.2-1.5 3.6v71.7c0 1.4.5 2.6 1.5 3.6s2.2 1.5 3.7 1.5h11.1l5.9-17.8-5.5-9.9L42.9 40l-6.4 13.6 7.4 9.6z"/><path fill="#B0E349" d="M81.5 20.3L64.8 3.6C63 1.8 60.6.7 57.7.1v27.2H85c-.5-2.9-1.7-5.2-3.5-7zM3 10.5h34.6c1.7 0 3 1.3 3 3v15.3c0 1.7-1.3 3-3 3H3c-1.7 0-3-1.3-3-3V13.5c0-1.7 1.3-3 3-3z"/><g fill="#B0E349"><path d="M72 52H37.3l-.7 1.6 1 1.4H72zM27 43v3h11.8l2-3zM27 55h6.4l-.4-.8 1.6-2.2H27zM40.1 46H72v-3H41.5zM27 64h11.4l-1.6-3H27zM72 64v-3H42.2l1.7 2.2-.2.8z"/></g><ellipse fill="#BB26B8" cx="71.3" cy="66.5" rx="19.3" ry="19.5"/><g fill="#FFF"><path d="M16.2 15.7V27h-2.8v-7.7l-3.3 4.4-3.2-4.4V27H4.2V15.7H7l3.2 4.4 3.2-4.4h2.8zM18.6 15.7h7.7v2.1h-5v2.7h4.3v2.2h-4.3V27h-2.8V15.7zM30.7 17.8h-3.2v-2.1h9.2v2.1h-3.2V27h-2.8v-9.2z"/></g><path fill="#FFF" d="M69.9 63.6L59.6 73.9c-.4.4-.6.8-.6 1.4 0 .5.2 1 .6 1.4l1.6 1.6c.4.4.9.6 1.4.6.5 0 1-.2 1.4-.6L74.2 68c-1-.4-1.9-1-2.6-1.7-.7-.8-1.3-1.7-1.7-2.7zM64.2 75c-.2.2-.4.3-.7.3s-.5-.1-.7-.3c-.2-.2-.3-.4-.3-.7s.1-.5.3-.7c.2-.2.4-.3.7-.3s.5.1.7.3c.2.2.3.4.3.7s-.1.5-.3.7zm19.5-14c.1.1.1.2.1.4 0 .4-.1.9-.3 1.6-.5 1.4-1.3 2.4-2.5 3.3-1.2.8-2.5 1.3-3.9 1.3-1.9 0-3.5-.7-4.8-2s-2-2.9-2-4.8.7-3.5 2-4.8c1.3-1.3 2.9-2 4.8-2 .6 0 1.2.1 1.8.2.6.2 1.2.4 1.6.7.2.1.2.3.2.4 0 .2-.1.3-.2.4l-4.4 2.6v3.4l2.9 1.6c.1 0 .4-.3 1.2-.7.7-.5 1.4-.9 2.1-1.2.6-.4 1-.5 1.1-.5.1 0 .2 0 .3.1z"/></svg>