<svg xmlns="http://www.w3.org/2000/svg" viewBox="0 0 91 86"><title>icon4</title><path fill="#87BF18" d="M57.7 0H21.5c-1.4 0-2.7.5-3.7 1.5s-1.5 2.2-1.5 3.6v71.7c0 1.4.5 2.6 1.5 3.6s2.2 1.5 3.7 1.5H80c1.4 0 2.7-.5 3.7-1.5s1.5-2.2 1.5-3.6v-49c0-2.2-27.5-26.4-27.5-27.8z"/><path fill="#B0E349" d="M81.5 20.3L64.8 3.6C63 1.8 60.6.7 57.7.1v27.2H85c-.5-2.9-1.7-5.2-3.5-7zM3 10.5h34.6c1.7 0 3 1.3 3 3v15.3c0 1.7-1.3 3-3 3H3c-1.7 0-3-1.3-3-3V13.5c0-1.7 1.3-3 3-3zM72 64H27v-3h45v3zm0-9H27v-3h45v3zm0-9H27v-3h45v3z"/><ellipse fill="#BB26B8" cx="71.3" cy="66.5" rx="19.3" ry="19.5"/><path fill="#FFF" d="M82.6 55.1c-.4-.2-.8-.1-1.2.2l-2.1 2.1c-1.2-1.1-2.5-2-4-2.6-1.5-.6-3.1-.9-4.7-.9-1.7 0-3.4.3-4.9 1-1.6.7-2.9 1.6-4 2.7s-2 2.5-2.7 4c-.7 1.5-1 3.2-1 4.9 0 1.7.3 3.3 1 4.9.7 1.6 1.6 2.9 2.7 4s2.5 2 4 2.7c1.5.7 3.2 1 4.9 1 1.9 0 3.7-.4 5.4-1.2 1.7-.8 3.2-1.9 4.3-3.4.1-.1.1-.2.1-.4 0-.1-.1-.3-.2-.3L78 71.7c-.1-.1-.3-.1-.4-.1-.2 0-.3.1-.4.2-.8 1-1.8 1.9-2.9 2.4-1.1.6-2.4.9-3.7.9-1.1 0-2.2-.2-3.3-.7-1-.4-1.9-1-2.7-1.8-.8-.8-1.4-1.7-1.8-2.7-.4-1-.7-2.1-.7-3.3 0-1.1.2-2.2.7-3.3.4-1 1-1.9 1.8-2.7.8-.8 1.7-1.4 2.7-1.8 1-.4 2.1-.7 3.3-.7 2.2 0 4.1.8 5.7 2.3L74 62.7c-.3.3-.4.7-.2 1.1.2.4.5.7 1 .7h7.4c.3 0 .5-.1.7-.3s.3-.5.3-.7v-7.4c0-.5-.2-.8-.6-1z"/><g fill="#FFF"><path d="M4.2 15.7h4.6c1.9 0 3.3.5 4.2 1.4.9.9 1.4 2.4 1.4 4.3s-.5 3.3-1.4 4.2c-.9.9-2.3 1.4-4.2 1.4H4.2V15.7zm4.2 9.2c1 0 1.8-.3 2.3-.9.5-.6.8-1.5.8-2.7 0-1.2-.3-2.1-.8-2.7-.5-.6-1.3-.9-2.3-.9H7v7.1h1.4zM17.3 25.8c-1-1-1.5-2.5-1.5-4.4 0-1.9.5-3.4 1.4-4.4 1-1 2.3-1.5 4.1-1.5 1.7 0 3.1.5 4.1 1.5 1 1 1.5 2.5 1.5 4.4 0 1.9-.5 3.4-1.4 4.4-1 1-2.3 1.5-4.1 1.5-1.8-.1-3.1-.6-4.1-1.5zm6.1-1.7c.5-.6.7-1.5.7-2.8 0-1.3-.2-2.2-.7-2.8-.4-.6-1.1-.8-2-.8-.9 0-1.6.3-2 .9-.4.6-.7 1.5-.7 2.8 0 1.3.2 2.2.7 2.8.4.6 1.1.8 2 .8s1.5-.3 2-.9zM28.3 21.3c0-4 1.9-5.9 5.6-5.9 1.1 0 2.3.3 3.6.8v2.4c-1.1-.7-2.2-1.1-3.2-1.1s-1.8.3-2.3.9-.8 1.6-.8 2.9.3 2.3.8 2.9c.5.6 1.3.9 2.4.9.5 0 .9-.1 1.5-.3s1.1-.4 1.6-.8v2.4c-.5.2-1 .4-1.7.6-.7.1-1.3.2-1.9.2-3.8 0-5.6-1.9-5.6-5.9z"/></g></svg>