<svg xmlns="http://www.w3.org/2000/svg" viewBox="0 0 89 89"><path fill="#87BF18" d="M23 55.5h-4c-.8 0-1.5.7-1.5 1.5s.7 1.5 1.5 1.5h4V63c0 1.7 1.3 3 3 3h5v4.5c0 .8.7 1.5 1.5 1.5s1.5-.7 1.5-1.5V66h5v4.5c0 .8.7 1.5 1.5 1.5s1.5-.7 1.5-1.5V66h5v4.5c0 .8.7 1.5 1.5 1.5s1.5-.7 1.5-1.5V66h5v4.5c0 .8.7 1.5 1.5 1.5s1.5-.7 1.5-1.5V66h4c1.7 0 3-1.3 3-3v-4.5h5c.8 0 1.5-.7 1.5-1.5s-.7-1.5-1.5-1.5h-5v-5h5c.8 0 1.5-.7 1.5-1.5s-.7-1.5-1.5-1.5h-5v-5h5c.8 0 1.5-.7 1.5-1.5s-.7-1.5-1.5-1.5h-5v-5h5c.8 0 1.5-.7 1.5-1.5s-.7-1.5-1.5-1.5h-5V27c0-1.7-1.3-3-3-3h-4v-4.5c0-.8-.7-1.5-1.5-1.5s-1.5.7-1.5 1.5V24h-5v-4.5c0-.8-.7-1.5-1.5-1.5s-1.5.7-1.5 1.5V24h-5v-4.5c0-.8-.7-1.5-1.5-1.5s-1.5.7-1.5 1.5V24h-5v-4.5c0-.8-.7-1.5-1.5-1.5s-1.5.7-1.5 1.5V24h-5c-1.7 0-3 1.3-3 3v4.5h-4c-.8 0-1.5.7-1.5 1.5s.7 1.5 1.5 1.5h4v5h-4c-.8 0-1.5.7-1.5 1.5s.7 1.5 1.5 1.5h4v5h-4c-.8 0-1.5.7-1.5 1.5s.7 1.5 1.5 1.5h4v5zM44 89C19.7 89 0 69.1 0 44.5S19.7 0 44 0s44 19.9 44 44.5S68.3 89 44 89z"/><path fill="#B0E349" d="M30 29h28c1.1 0 2 .9 2 2v28c0 1.1-.9 2-2 2H30c-1.1 0-2-.9-2-2V31c0-1.1.9-2 2-2z"/><ellipse fill="#BB26B8" cx="69.5" cy="70" rx="19.5" ry="19"/><path fill="#FFF" d="M69.7 67.1L64 61.5c-.8-.8-2.1-.8-2.8 0l-.7.7c-.8.8-.8 2.1 0 2.8l5.7 5.7-5.7 5.7c-.8.8-.8 2.1 0 2.8l.7.7c.8.8 2.1.8 2.8 0l5.7-5.7 5.7 5.7c.8.8 2.1.8 2.8 0l.7-.7c.8-.8.8-2.1 0-2.8l-5.7-5.7 5.7-5.7c.8-.8.8-2.1 0-2.8l-.7-.7c-.8-.8-2.1-.8-2.8 0l-5.7 5.6z"/></svg>