<svg xmlns="http://www.w3.org/2000/svg" viewBox="0 0 103 82"><path fill="#87BF18" d="M82 74V9.2c0-1.7-1.3-3-3-3H60V77h19c1.7 0 3-1.3 3-3z"/><path fill="#B0E349" d="M76.6 16H60v51.3h16.6c1.7 0 3-1.3 3-3V19c0-1.7-1.3-3-3-3z"/><ellipse fill="#FFF" cx="77.2" cy="11.1" rx="2.4" ry="2.4"/><ellipse fill="#FFF" cx="77.2" cy="72.1" rx="2.4" ry="2.4"/><path fill="#B0E349" d="M62.5 5h9.8v6.1h-9.8z"/><g><path fill="#87BF18" d="M3 1.4h51c1.7 0 3 1.3 3 3V79c0 1.7-1.3 3-3 3H3c-1.7 0-3-1.3-3-3V4.4c0-1.7 1.3-3 3-3z"/><path fill="#B0E349" d="M5.8 12.5h45.4c1.7 0 3 1.3 3 3v52.4c0 1.7-1.3 3-3 3H5.8c-1.7 0-3-1.3-3-3V15.5c0-1.6 1.3-3 3-3z"/><ellipse fill="#FFF" cx="51.4" cy="6.9" rx="2.8" ry="2.8"/><ellipse fill="#FFF" cx="5.6" cy="6.9" rx="2.8" ry="2.8"/><ellipse fill="#FFF" cx="5.6" cy="76.4" rx="2.8" ry="2.8"/><ellipse fill="#FFF" cx="51.4" cy="76.4" rx="2.8" ry="2.8"/><path fill="#B0E349" d="M11.1 0H32v6.9H11.1zM34.8 0h11.1v6.9H34.8z"/></g><g><path fill="#87BF18" d="M102.2 69V15c0-1.7-1.3-3-3-3H85v60h14.2c1.7 0 3-1.3 3-3z"/><ellipse fill="#FFF" cx="98.1" cy="16.2" rx="2.1" ry="2.1"/><ellipse fill="#FFF" cx="98.1" cy="67.9" rx="2.1" ry="2.1"/><path fill="#B0E349" d="M85.7 11h8.2v5.2h-8.2zM97.1 20.3H85v43.4h12.1c1.7 0 3-1.3 3-3V23.3c0-1.7-1.3-3-3-3z"/></g></svg>