<svg xmlns="http://www.w3.org/2000/svg" viewBox="0 0 88 89"><ellipse fill="#87BF18" cx="44" cy="44.5" rx="44" ry="44.5"/><path fill="#B0E349" d="M43.8 14c-5.9 0-17.6 2.3-24.3 6-.8.4-1.5 1-1.5 2.9v32.4c0 2.6.3 5.7 2.4 8.3s9.8 12.1 23.3 18c.2.1.4.1.4.1l.3-.1c13.5-5.9 21.2-15.3 23.3-18 2-2.6 2.3-5.6 2.3-8.2V22.9c0-1.9-.7-2.5-1.5-2.9-6.6-3.7-18-5.9-24-6h-.7z"/><path fill="#FFF" d="M41.8 52.6v3.9c0 1 .8 1.8 1.8 1.8s1.8-.8 1.8-1.8V53v-.3c.5-.5.7-1.1.7-1.8 0-1.4-1.1-2.5-2.5-2.5S41 49.5 41 50.8c0 .7.3 1.4.8 1.8zM29 44.5c0-2.2 1.8-4 4-4h21c2.2 0 4 1.8 4 4V60c0 2.2-1.8 4-4 4H33c-2.2 0-4-1.8-4-4V44.5zm25-5.4h-4.5v-1.2c0-3.3-2.6-5.9-5.9-5.9-3.3 0-5.9 2.7-5.9 5.9v1.2h-4.5v-1.6c0-5.8 4.7-10.5 10.4-10.5C49.4 27 54 31.7 54 37.5v1.6z"/></svg>