<svg xmlns="http://www.w3.org/2000/svg" viewBox="0 0 92 83"><title>icon7</title><path fill="#87BF18" d="M6 .4h80c3.3 0 6 2.7 6 6v70c0 3.3-2.7 6-6 6H6c-3.3 0-6-2.7-6-6v-70C0 3 2.7.4 6 .4z"/><path fill="#B0E349" d="M7.3 21h77.4c1.7 0 3 1.3 3 3v51c0 1.7-1.3 3-3 3H7.3c-1.7 0-3-1.3-3-3V24c0-1.7 1.3-3 3-3z"/><path fill="#BB26B8" d="M9.2 39.5h6.9v5.6H9.2v-5.6zm9.6 0h6.9v5.6h-6.9v-5.6zm9.7 0h6.9v5.6h-6.9v-5.6zm9.6 0H45v5.6h-6.9v-5.6zm9.7 0h6.9v5.6h-6.9v-5.6zm-9.7 7.4H45v5.6h-6.9v-5.6zm9.7 0h6.9v5.6h-6.9v-5.6zm9.6 0h6.9v5.6h-6.9v-5.6zm9.7 0H74v5.6h-6.9v-5.6zm9.6 0h6.9v5.6h-6.9v-5.6z"/><path fill="#FFF" d="M9.2 24.6h6.9v5.6H9.2v-5.6zm9.6 0h6.9v5.6h-6.9v-5.6zm9.7 0h6.9v5.6h-6.9v-5.6zm9.6 0H45v5.6h-6.9v-5.6zm9.7 0h6.9v5.6h-6.9v-5.6zm9.6 0h6.9v5.6h-6.9v-5.6zm9.7 0H74v5.6h-6.9v-5.6zm9.6 0h6.9v5.6h-6.9v-5.6zM9.2 32h6.9v5.6H9.2V32zm9.6 0h6.9v5.6h-6.9V32zm9.7 0h6.9v5.6h-6.9V32zm9.6 0H45v5.6h-6.9V32zm9.7 0h6.9v5.6h-6.9V32zm9.6 0h6.9v5.6h-6.9V32zm9.7 0H74v5.6h-6.9V32zm9.6 0h6.9v5.6h-6.9V32zm-19.3 7.5h6.9v5.6h-6.9v-5.6zm9.7 0H74v5.6h-6.9v-5.6zm9.6 0h6.9v5.6h-6.9v-5.6zM9.2 46.9h6.9v5.6H9.2v-5.6zm9.6 0h6.9v5.6h-6.9v-5.6zm9.7 0h6.9v5.6h-6.9v-5.6zM9.2 54.4h6.9V60H9.2v-5.6zm9.6 0h6.9V60h-6.9v-5.6zm9.7 0h6.9V60h-6.9v-5.6zm9.6 0H45V60h-6.9v-5.6zm9.7 0h6.9V60h-6.9v-5.6zm9.6 0h6.9V60h-6.9v-5.6zm9.7 0H74V60h-6.9v-5.6zm9.6 0h6.9V60h-6.9v-5.6zM9.2 61.8h6.9v5.6H9.2v-5.6zm9.6 0h6.9v5.6h-6.9v-5.6zm9.7 0h6.9v5.6h-6.9v-5.6zm9.6 0H45v5.6h-6.9v-5.6zm9.7 0h6.9v5.6h-6.9v-5.6zm9.6 0h6.9v5.6h-6.9v-5.6zm9.7 0H74v5.6h-6.9v-5.6zm9.6 0h6.9v5.6h-6.9v-5.6zM9.2 69.2h6.9v5.6H9.2v-5.6zm9.6 0h6.9v5.6h-6.9v-5.6zm9.7 0h6.9v5.6h-6.9v-5.6zm9.6 0H45v5.6h-6.9v-5.6zm9.7 0h6.9v5.6h-6.9v-5.6zm9.6 0h6.9v5.6h-6.9v-5.6zm9.7 0H74v5.6h-6.9v-5.6zm9.6 0h6.9v5.6h-6.9v-5.6zM40.2 5.7V17h-2.8V9.3l-3.3 4.4-3.2-4.4V17h-2.6V5.7H31l3.2 4.4 3.2-4.4h2.8zm9.1 8.9H45l-.8 2.4h-2.6l4.3-11.3h3l4 11.3h-2.8l-.8-2.4zm-.7-2.1l-1.4-4.3-1.4 4.3h2.8zm8.5 4.5h-2.8V5.7h5.1c1.4 0 2.4.3 3.2.9s1.1 1.5 1.1 2.8c0 1.3-.4 2.2-1.1 2.9s-1.8 1-3.1 1h-2.3V17zm2-5.8c.6 0 1-.1 1.2-.4.3-.3.4-.7.4-1.2 0-1.2-.5-1.7-1.6-1.7h-2v3.3h2z"/></svg>