<?xml version="1.0" encoding="UTF-8"?>
<svg width="138px" height="63px" viewBox="0 0 138 63" version="1.1" xmlns="http://www.w3.org/2000/svg" xmlns:xlink="http://www.w3.org/1999/xlink">
    <!-- Generator: Sketch 47.1 (45422) - http://www.bohemiancoding.com/sketch -->
    <title>Group 3</title>
    <desc>Created with Sketch.</desc>
    <defs>
        <polygon id="path-1" points="17.325906 20.9919228 17.325906 0.260311638 0.216822294 0.260311638 0.216822294 20.9919228 17.325906 20.9919228"></polygon>
        <polygon id="path-3" points="11.2226641 17.1403834 0.303245585 17.1403834 0.303245585 0.23605288 11.2226641 0.23605288 11.2226641 17.1403834"></polygon>
        <polygon id="path-5" points="3.47731925 3.80897409 0.172059941 3.80897409 0.172059941 0.171831934 3.47731925 0.171831934"></polygon>
    </defs>
    <g id="Welcome" stroke="none" stroke-width="1" fill="none" fill-rule="evenodd">
        <g id="index" transform="translate(-44.000000, -21.000000)">
            <g id="Group-3" transform="translate(44.000000, 21.000000)">
                <path d="M65.9879657,34.7584757 C64.9688504,33.8325776 63.5591269,33.0761788 61.7976035,32.5105461 L56.49568,30.8174572 C55.764946,30.5790789 55.1459045,30.3514927 54.6546467,30.1407294 C54.1952561,29.9442498 53.8229477,29.7303125 53.5503423,29.5059004 C53.3001384,29.2998984 53.1234497,29.0834217 53.0240623,28.8609141 C52.9215198,28.6345976 52.8700907,28.3549554 52.8700907,28.0299229 C52.8700907,27.4782565 53.1467979,27.0170533 53.7156724,26.6196503 C54.3325054,26.1895536 55.3030312,25.9714899 56.5998002,25.9714899 C58.2382725,25.9714899 59.7136233,26.2041547 60.9848354,26.6631361 C62.2509994,27.1211652 63.409257,27.79948 64.4264792,28.6784008 L64.7962634,28.9980372 L66.8029424,26.5755297 L66.4694425,26.2638286 C65.9213919,25.751839 65.2622799,25.2779392 64.5104063,24.8548256 C63.7679982,24.437743 62.9571232,24.0790646 62.100183,23.7879955 C61.2482909,23.4994657 60.3449699,23.2750536 59.4145145,23.1198379 C58.4843746,22.9655745 57.5368814,22.8878079 56.5998002,22.8878079 C55.0499877,22.8878079 53.7002122,23.0404843 52.5870733,23.3423455 C51.4600517,23.6483331 50.5153981,24.0720814 49.7799313,24.6015288 C49.0267957,25.1449425 48.4620228,25.7832631 48.1023351,26.4980805 C47.7420163,27.2122632 47.5593328,27.964853 47.5593328,28.7358528 C47.5593328,30.2207179 48.0616336,31.4633957 49.0526679,32.4286532 C50.0001612,33.3523294 51.4042054,34.1172984 53.2278854,34.7026107 L58.5597828,36.3969694 C59.9755012,36.8473806 60.9819958,37.3044575 61.5511859,37.7558209 C62.051278,38.1519542 62.294225,38.6188709 62.294225,39.1829165 C62.294225,39.9405849 61.9787095,40.5201838 61.3293784,40.9553591 C60.6276718,41.4260848 59.3671872,41.665098 57.5823156,41.665098 C55.9397416,41.665098 54.4139084,41.4311635 53.047726,40.9702776 C51.690378,40.5116136 50.4882638,39.8345685 49.4751433,38.958187 L49.1050435,38.6382332 L47.098049,41.0607407 L47.431549,41.3724418 C47.9808616,41.8860185 48.6402891,42.3599183 49.3905851,42.7817622 C50.1320467,43.1985275 50.9530182,43.5575233 51.8326756,43.849862 C52.7022364,44.1380744 53.6342694,44.3624865 54.6022712,44.5170673 C55.5680643,44.6713308 56.5707727,44.7490973 57.5823156,44.7490973 C59.3703423,44.7490973 60.9059566,44.5922946 62.1465637,44.2828154 C63.4026312,43.9701621 64.4460412,43.5337172 65.2477662,42.9852249 C66.0734704,42.4214967 66.6805224,41.7400078 67.0531462,40.9594855 C67.4197753,40.191025 67.605614,39.3559074 67.605614,38.4769866 C67.605614,36.9867255 67.0613496,35.7354775 65.9879657,34.7584757" id="Fill-1" fill="#707279"></path>
                <path d="M81.2397986,36.3595145 C81.2397986,37.2644632 81.1391492,38.0411765 80.9400588,38.6690224 C80.7466478,39.2784583 80.4778285,39.7802906 80.1405424,40.1608706 C79.807358,40.5370068 79.4202204,40.8033176 78.9583056,40.9747214 C78.4809306,41.1515213 77.9467627,41.2413496 77.3696848,41.2413496 L74.3419974,41.2413496 L74.3419974,31.4776793 L77.3696848,31.4776793 C77.9461317,31.4776793 78.479984,31.5675076 78.9583056,31.7446249 C79.4202204,31.9160288 79.807358,32.1823395 80.1405424,32.5578409 C80.4778285,32.9396906 80.7466478,33.4415229 80.9397433,34.0496891 C81.1391492,34.6778524 81.2397986,35.4545657 81.2397986,36.3595145 M83.9118999,30.6263736 C83.1174317,29.9477414 82.1506921,29.4227378 81.0381842,29.0662813 C79.9376659,28.7136338 78.703369,28.5349294 77.3696848,28.5349294 L69.4518217,28.5349294 L69.4518217,49.3973154 L74.3419974,49.3973154 L74.3419974,44.1840995 L77.3696848,44.1840995 C78.7043156,44.1840995 79.9386125,44.0053951 81.0381842,43.6533824 C82.1522696,43.2962911 83.1186938,42.7709701 83.9118999,42.0926553 C84.7117319,41.408627 85.3351906,40.5722398 85.7655538,39.6063475 C86.1930774,38.6442641 86.4104676,37.5517234 86.4104676,36.3595145 C86.4104676,35.1673056 86.1930774,34.0747648 85.7652383,33.112364 C85.3351906,32.1474239 84.7120474,31.3110367 83.9118999,30.6263736" id="Fill-3" fill="#707279"></path>
                <path d="M99.0624208,36.8426193 L99.0624208,41.2413496 L95.6132047,41.2413496 C93.1786866,41.2413496 92.8660107,40.0659637 92.8660107,39.0419845 C92.8660107,38.0180053 93.1786866,36.8426193 95.6132047,36.8426193 L99.0624208,36.8426193 Z M101.840851,29.7176159 C101.158391,29.1529355 100.318804,28.7149035 99.3467003,28.4149467 C98.3884796,28.1200687 97.2740786,27.970249 96.034418,27.970249 C95.5655618,27.970249 95.0560042,28.0099258 94.5196277,28.0880098 C93.9870375,28.1664112 93.4449817,28.2790933 92.9070277,28.4244692 C92.3671806,28.569845 91.8323817,28.7523584 91.3174603,28.967248 C90.7914959,29.1872162 90.3046554,29.449718 89.8695594,29.7484051 L89.4997752,30.0020193 L90.966607,32.5318129 L91.391922,32.2420135 C91.9857223,31.83731 92.6710221,31.5113253 93.4282594,31.2719947 C94.1813951,31.0339339 94.9641892,30.9133163 95.7542401,30.9133163 C96.7623124,30.9133163 97.5517323,31.1862928 98.1676187,31.7477991 C98.6793849,32.2143984 98.9734454,32.9371512 99.0450674,33.8998694 L95.6132047,33.8998694 C92.9505689,33.8998694 91.0256084,34.3033033 89.7282084,35.1330248 C88.3790639,35.9960749 87.6953417,37.3114406 87.6953417,39.0419845 C87.6953417,40.7731632 88.3790639,42.0882115 89.7282084,42.9512615 C91.0249774,43.7806657 92.9502533,44.1840995 95.6132047,44.1840995 L103.952596,44.1840995 L103.952596,34.3829743 C103.952596,33.4342224 103.773068,32.5546668 103.418429,31.7687484 C103.061581,30.9799734 102.530568,30.2899142 101.840851,29.7176159 L101.840851,29.7176159 Z" id="Fill-5" fill="#707279"></path>
                <path d="M106.6406,35.0888724 L106.6406,44.1840678 L111.530144,44.1840678 L111.530144,35.0888724 C111.530144,33.8719052 111.823889,32.9552121 112.40286,32.3648211 C112.979623,31.7763346 113.846975,31.4776476 114.979676,31.4776476 L118.828019,31.4776476 L118.828019,28.5348977 L114.137565,28.5348977 C111.764572,28.5348977 109.906501,29.1119573 108.614465,30.2502057 C107.305076,31.4046423 106.6406,33.0323439 106.6406,35.0888724 Z" id="Fill-7" fill="#707279"></path>
                <g id="Group-11" transform="translate(119.895913, 23.192208)">
                    <mask id="mask-2" fill="white">
                        <use xlink:href="#path-1"></use>
                    </mask>
                    <g id="Clip-10"></g>
                    <polygon id="Fill-9" fill="#707279" mask="url(#mask-2)" points="11.8063399 12.888013 17.0568344 5.34275274 11.6747699 5.34275274 7.32444134 11.5548721 5.10699798 11.5548721 5.10699798 0.260311638 0.216822294 0.260311638 0.216822294 20.9919228 5.10699798 20.9919228 5.10699798 14.4973046 7.31781552 14.4973046 11.6681441 20.9919228 17.3259691 20.9919228"></polygon>
                </g>
                <path d="M20.8991198,32.8836034 L1.44095957,32.8836034 C0.644913807,32.8836034 0,32.2344907 0,31.4339714 C0,30.633452 0.644913807,29.9846567 1.44095957,29.9846567 L20.8991198,29.9846567 C21.69485,29.9846567 22.3397638,30.633452 22.3397638,31.4339714 C22.3397638,32.2344907 21.69485,32.8836034 20.8991198,32.8836034" id="Fill-12" fill="#90278E"></path>
                <path d="M28.5132359,32.8836034 L25.1293315,32.8836034 C24.3332858,32.8836034 23.688372,32.2344907 23.688372,31.4339714 C23.688372,30.633452 24.3332858,29.9846567 25.1293315,29.9846567 L28.5132359,29.9846567 C29.3092817,29.9846567 29.9541955,30.633452 29.9541955,31.4339714 C29.9541955,32.2344907 29.3092817,32.8836034 28.5132359,32.8836034" id="Fill-14" fill="#90278E"></path>
                <path d="M12.5981893,46.1824778 C12.0999902,46.1824778 11.6159894,45.9225153 11.3490632,45.4571856 C10.9508826,44.7642697 11.1872037,43.8774136 11.8762897,43.4774713 L12.6089168,43.0518185 C13.2992649,42.6502891 14.1792378,42.8886674 14.5767874,43.5822181 C14.9752835,44.2754514 14.7389624,45.1619901 14.0498764,45.5619324 L13.3172493,45.9875852 C13.0900781,46.1199471 12.8423983,46.1824778 12.5981893,46.1824778" id="Fill-16" fill="#90278E"></path>
                <path d="M16.9942992,43.6293542 C16.4961001,43.6293542 16.0120992,43.3693917 15.7454886,42.904062 C15.3469924,42.2108287 15.5836291,41.32429 16.2723996,40.9240303 L28.7276919,33.6895188 C29.4180399,33.2902114 30.2980128,33.5270026 30.6955624,34.2199185 C31.0940586,34.9134692 30.8574219,35.7996905 30.1683359,36.2002676 L17.7133591,43.4344617 C17.4865034,43.5665061 17.2388237,43.6293542 16.9942992,43.6293542" id="Fill-18" fill="#90278E"></path>
                <g id="Group-22" transform="translate(16.722325, 45.411224)">
                    <mask id="mask-4" fill="white">
                        <use xlink:href="#path-3"></use>
                    </mask>
                    <g id="Clip-21"></g>
                    <path d="M1.74297106,17.1404152 C1.49876202,17.1404152 1.25076679,17.0775671 1.0239111,16.9455227 C0.334825114,16.545263 0.0985039583,15.6587242 0.496684597,14.965491 L8.53412801,0.960845457 C8.93167761,0.267929586 9.81259706,0.0301861197 10.5019986,0.430445814 C11.1910845,0.830705509 11.4274057,1.71756164 11.0292251,2.41047751 L2.99178166,16.415123 C2.72517101,16.8804527 2.24117014,17.1404152 1.74297106,17.1404152" id="Fill-20" fill="#90278E" mask="url(#mask-4)"></path>
                </g>
                <path d="M28.6173876,44.8618112 C28.3731786,44.8618112 28.1254989,44.7989631 27.8983277,44.6669187 C27.2095572,44.266659 26.9729205,43.3801203 27.3711012,42.686887 L30.7553211,36.7902777 C31.1535017,36.0973618 32.0337901,35.8599358 32.7231916,36.2595606 C33.4122776,36.6601377 33.6485988,37.5466765 33.2504181,38.2399098 L29.8665137,44.1365191 C29.5995876,44.6018487 29.1155867,44.8618112 28.6173876,44.8618112" id="Fill-23" fill="#90278E"></path>
                <path d="M35.492945,50.9695647 C34.6968992,50.9695647 34.0519854,50.3207694 34.0519854,49.5199326 L34.0519854,38.4558151 C34.0519854,37.6552957 34.6968992,37.006183 35.492945,37.006183 C36.2886752,37.006183 36.9339045,37.6552957 36.9339045,38.4558151 L36.9339045,49.5199326 C36.9339045,50.3207694 36.2886752,50.9695647 35.492945,50.9695647" id="Fill-25" fill="#90278E"></path>
                <g id="Group-29" transform="translate(50.482490, 58.742633)">
                    <mask id="mask-6" fill="white">
                        <use xlink:href="#path-5"></use>
                    </mask>
                    <g id="Clip-28"></g>
                    <path d="M2.0376626,3.80900584 C1.53946353,3.80900584 1.05546266,3.54904335 0.788852007,3.08371369 L0.365430123,2.3466772 C-0.0327505153,1.65344391 0.203886156,0.766905193 0.892656626,0.366645498 C1.58332019,-0.0342490254 2.46297758,0.203494441 2.8608427,0.897045141 L3.28394907,1.63408163 C3.6821297,2.32731491 3.44549303,3.21385363 2.75672256,3.61411333 C2.52986687,3.74615776 2.28187164,3.80900584 2.0376626,3.80900584" id="Fill-27" fill="#90278E" mask="url(#mask-6)"></path>
                </g>
                <path d="M49.9821768,58.1289124 C49.4839777,58.1289124 48.9999768,57.8689499 48.7333662,57.4036202 L41.1190292,44.136646 C40.720533,43.4434127 40.9571697,42.556874 41.6462557,42.1566143 C42.3366037,41.7554024 43.2165766,41.9937807 43.6141262,42.687014 L51.2284633,55.9539882 C51.6266439,56.6472214 51.3903227,57.5337602 50.7012368,57.9340199 C50.4743811,58.0660643 50.2267014,58.1289124 49.9821768,58.1289124" id="Fill-30" fill="#90278E"></path>
                <path d="M40.2530967,41.1758987 C39.7548976,41.1758987 39.2708968,40.9159362 39.0042861,40.450924 L37.734967,38.2398145 C37.3367864,37.5465812 37.5731075,36.6600425 38.261878,36.2597828 C38.9525416,35.8598405 39.8325145,36.0972666 40.2300641,36.7901825 L41.4993832,39.0012919 C41.8975638,39.6945252 41.6612426,40.5810639 40.9721567,40.981641 C40.745301,41.1130507 40.4973057,41.1758987 40.2530967,41.1758987" id="Fill-32" fill="#90278E"></path>
                <g id="Group-36" transform="translate(42.910116, 0.020949)" fill="#90278E">
                    <path d="M1.56994233,17.2002478 C1.32573329,17.2002478 1.07773805,17.1373997 0.850882366,17.0056727 C0.16179638,16.605413 -0.0745247756,15.7188743 0.323655863,15.025641 L8.36109927,1.02099551 C8.75927991,0.32839705 9.64019936,0.090970998 10.3289698,0.490278449 C11.0180558,0.890855558 11.254377,1.77739428 10.8561963,2.47062756 L2.81875292,16.4752731 C2.55214227,16.9402853 2.0681414,17.2002478 1.56994233,17.2002478" id="Fill-34"></path>
                </g>
                <path d="M38.9811904,26.8029889 C38.7366658,26.8029889 38.4889861,26.7404583 38.2621304,26.6087312 C37.5730444,26.2081541 37.3367233,25.3216154 37.7349039,24.6283821 L41.1188083,18.7320902 C41.5166734,18.0388569 42.3979084,17.8020657 43.0869944,18.2013732 C43.7760804,18.6019503 44.0124015,19.488489 43.6142209,20.1817223 L40.230001,26.0780142 C39.9633903,26.5430264 39.4793894,26.8029889 38.9811904,26.8029889" id="Fill-37" fill="#90278E"></path>
                <path d="M35.492945,25.862204 C34.6968992,25.862204 34.0519854,25.2130914 34.0519854,24.412572 L34.0519854,5.68829017 C34.0519854,4.88777078 34.6968992,4.23865811 35.492945,4.23865811 C36.2886752,4.23865811 36.9339045,4.88777078 36.9339045,5.68829017 L36.9339045,24.412572 C36.9339045,25.2130914 36.2886752,25.862204 35.492945,25.862204" id="Fill-39" fill="#90278E"></path>
                <path d="M18.8911156,3.95349292 C18.3929165,3.95349292 17.9089157,3.69353044 17.642305,3.22851818 L17.2191987,2.4914817 C16.8207025,1.79824841 17.0573392,0.911709691 17.7464252,0.511449997 C18.4361422,0.111825131 19.3167461,0.349251183 19.7142957,1.04216705 L20.1374021,1.77888613 C20.5355827,2.47211941 20.2992616,3.35865813 19.6101756,3.75923524 C19.3833199,3.89096226 19.1353247,3.95349292 18.8911156,3.95349292" id="Fill-41" fill="#90278E"></path>
                <path d="M25.6592715,15.746775 C25.1610724,15.746775 24.6770715,15.4868125 24.4101454,15.0218003 L19.7569219,6.9137641 C19.3587412,6.22084823 19.5950624,5.33430951 20.2841484,4.9337324 C20.9741809,4.53410754 21.8544693,4.77153359 22.2523344,5.46444946 L26.9055579,13.5721682 C27.3037386,14.2654015 27.0671019,15.1519402 26.3783314,15.5525174 C26.1511602,15.683927 25.9034805,15.746775 25.6592715,15.746775" id="Fill-43" fill="#90278E"></path>
                <path d="M32.0042579,26.8029889 C31.5060588,26.8029889 31.0220579,26.5430264 30.7554473,26.0780142 L26.5246991,18.7073319 C26.126834,18.0137812 26.3634707,17.1272425 27.0522411,16.7269828 C27.7422737,16.3267231 28.6235086,16.5644665 29.0207427,17.2576998 L33.2505443,24.6283821 C33.648725,25.3216154 33.4124038,26.2081541 32.7233178,26.6087312 C32.4964621,26.7404583 32.2484669,26.8029889 32.0042579,26.8029889" id="Fill-45" fill="#90278E"></path>
                <path d="M29.4466887,29.3732846 C29.2024797,29.3732846 28.9544844,29.3104366 28.7276288,29.1787095 L19.2031605,23.6464921 C18.5140745,23.2462324 18.2777534,22.3596937 18.675934,21.6664604 C19.0741146,20.9735445 19.9544031,20.7361185 20.6438046,21.1357433 L30.1685883,26.6682782 C30.8576743,27.0685379 31.0939955,27.9550766 30.6954993,28.6483099 C30.4288887,29.1133221 29.9448878,29.3732846 29.4466887,29.3732846" id="Fill-47" fill="#90278E"></path>
            </g>
        </g>
    </g>
</svg>