<svg xmlns="http://www.w3.org/2000/svg" viewBox="0 0 90 90"><circle fill="#87BF18" cx="45" cy="45" r="45"/><path fill="#FFF" d="M41.7 39.1L20.2 60.6c-.8.8-1.2 1.8-1.2 2.9 0 1.1.4 2.1 1.2 2.8l3.3 3.4c.8.8 1.8 1.2 2.9 1.2 1.1 0 2.1-.4 2.8-1.2l21.5-21.5c-2.1-.8-3.9-2-5.5-3.6-1.5-1.6-2.7-3.5-3.5-5.5zM29.9 62.8c-.4.4-.9.6-1.4.6s-1-.2-1.4-.6c-.4-.4-.6-.9-.6-1.4s.2-1 .6-1.4c.4-.4.9-.6 1.4-.6.5 0 1 .2 1.4.6.4.4.6.9.6 1.4s-.2 1-.6 1.4zm40.6-29.2c.2.2.3.5.3.8 0 .8-.2 1.9-.7 3.3-1 2.8-2.7 5.1-5.2 6.9-2.5 1.8-5.2 2.6-8.2 2.6-3.9 0-7.2-1.4-10-4.2s-4.2-6.1-4.2-10 1.4-7.2 4.2-10c2.8-2.8 6.1-4.2 10-4.2 1.2 0 2.5.2 3.8.5 1.3.3 2.5.8 3.4 1.5.3.2.5.5.5.9s-.2.7-.5.9l-9.2 5.3V35l6.1 3.4c.1-.1 5.5-3.3 6.8-4.1 1.3-.7 2-1.1 2.2-1.1.3.1.6.2.7.4z"/></svg>